<svg id="Layer_1" data-name="Layer 1" xmlns="http://www.w3.org/2000/svg" viewBox="0 0 179.19 168.37"><title>nasolabial</title><path d="M21.16,162.09c-.16-5.2,1.87-9.57,5.14-13.47a13.16,13.16,0,0,0,3.14-5.9,5.56,5.56,0,0,1,2.84-3.51,24.49,24.49,0,0,1,8.49-3.15c1.27-.25,2.57-.32,3.84-.5a1.11,1.11,0,0,0,.7-.34q6.63-8.15,13.24-16.31a20.61,20.61,0,0,0,3.79-7.39c.74-2.6,1.45-5.21,2.16-7.82a5.15,5.15,0,0,0,.08-.77,40.62,40.62,0,0,1-4.22,1,8.37,8.37,0,0,1-7.14-2.49A30.83,30.83,0,0,1,44.9,87.12c-.69-2.62-1.49-5.21-2.08-7.85a23.08,23.08,0,0,1,.37-10.55c.89-3.66,2-7.29,2.87-10.94.39-1.56.61-3.17.92-4.84a8.25,8.25,0,0,1-10.17-2.2c-.87-1-1.74-1.91-2.63-2.84a25.22,25.22,0,0,1-4.33-6.82A19.72,19.72,0,0,1,28,34.55a6.94,6.94,0,0,0-.73-2.66A4.92,4.92,0,0,1,27,27.16c.54-1.17,1.25-2.26,1.8-3.42s1-2.32,1.44-3.49.89-2.36,1.32-3.55a4.29,4.29,0,0,0,.22-.72,3.38,3.38,0,0,1,1.35-2.22,34.06,34.06,0,0,1,4.16-2.61,27,27,0,0,1,9.19-2.49c.85-.07,1.68-.35,2.53-.44a13.38,13.38,0,0,1,9.85,3.29,77.59,77.59,0,0,1,6,5.5c1.2,1.17,2.3,2.43,3.39,3.7a7.79,7.79,0,0,1,1.87,5.92,9.44,9.44,0,0,0,.23,2.48c.25,1.3.77,1.75,2.11,1.65a41.56,41.56,0,0,0,5.57-.7,39.46,39.46,0,0,1,10-1.2c3.44.14,6.89.35,10.3.81,3,.41,6,1.28,9.08,1.8a23.86,23.86,0,0,1,15,8.84,16.59,16.59,0,0,1,3.31,7.91,2.74,2.74,0,0,1,0,1.14,3,3,0,0,0,.64,2.52A32,32,0,0,1,130.21,63c.41,2.62.54,5.29.78,7.94a5.14,5.14,0,0,1-.74,3,6.93,6.93,0,0,0-.76,2.5,11.34,11.34,0,0,0,1.92,7.73c1.16,1.79,2.38,3.53,3.58,5.29.16.23.34.44.49.67,1.76,2.56.87,4.85-1.72,6.35-.61.36-1.29.57-1.92.9a2.3,2.3,0,0,0-.46,3.66,1.37,1.37,0,0,1,.12,1.93c-.73,1-1.6,1.82-2.42,2.72-.15.16-.33.3-.52.47a4.42,4.42,0,0,1,.64,3.42,2.4,2.4,0,0,1-1.52,1.67c-1,.38-1.87.85-2.85,1.3a6.18,6.18,0,0,1,.5,5.06,10.1,10.1,0,0,1-1.53,2.58,3.59,3.59,0,0,1-2.91,1,34,34,0,0,1-13-2.31c-1.62-.58-3.19-1.29-4.81-1.88a6,6,0,0,0-7.34,2,38.87,38.87,0,0,0-2.81,4.16,4.72,4.72,0,0,0-.37,1.76c-.15,1.23-.25,2.47-.4,3.7a.63.63,0,0,0,.57.81,21,21,0,0,0,3.74.6c7-.06,12.75,2.78,17.89,7.25a10.73,10.73,0,0,1,3.51,7c.77,5.78,1.44,11.57,2.15,17.35,0,.15,0,.31,0,.46h-.46c-.06-.48-.13-1-.19-1.43q-1-7.83-1.94-15.68a10.9,10.9,0,0,0-4.06-7.79,43.29,43.29,0,0,0-5.07-3.47,21.68,21.68,0,0,0-8.56-2.95c-1.74-.16-3.49-.21-5.23-.38a20.94,20.94,0,0,1-2.38-.5,3.65,3.65,0,0,0,.9,3.74c.93,1,1.84,2,2.76,2.93a9.66,9.66,0,0,1,2.7,4.17,42.69,42.69,0,0,0,2.84,7.34,18.23,18.23,0,0,1,2.11,7.39c.07,3.52-1.54,5.68-4.79,6.4-.39.09-.79.15-1.18.23H95.81a3.06,3.06,0,0,0-.43-.13,22.54,22.54,0,0,1-11.13-4.1,99.67,99.67,0,0,1-7.73-6.51,69.27,69.27,0,0,0-9.46-7.63,68.61,68.61,0,0,0-14.3-6.23,21.09,21.09,0,0,0-11.42-1,26.86,26.86,0,0,0-8.73,3.13,5.69,5.69,0,0,0-2.85,3.85,10.27,10.27,0,0,1-2.17,4.38c-1,1.24-1.94,2.48-2.83,3.77a16.41,16.41,0,0,0-3,10.47ZM90.29,98.61c-.23,1.92-1.3,2.74-3.06,2.52a7.3,7.3,0,0,1-3.52-1.49,44.89,44.89,0,0,1-7.33-7.38,13.6,13.6,0,0,1-2.89-4.86c-.14-.5-.28-1-.41-1.51A20.13,20.13,0,0,1,72,88.57a6.18,6.18,0,0,0-.63,4.54,5.4,5.4,0,0,1-1.07,4.37,17.47,17.47,0,0,1-4.67,4.64.89.89,0,0,0-.42.57c-.28,3-1.41,5.85-2.24,8.74a23.26,23.26,0,0,1-4.46,8.49c-4.07,5-8.1,10-12.15,14.93-.16.2-.31.41-.5.66a10.47,10.47,0,0,1,1.88.16c2.46.65,5,1.25,7.37,2.07,5.27,1.77,10.46,3.82,14.85,7.32,3.51,2.8,6.81,5.85,10.18,8.82a30.08,30.08,0,0,0,8.45,5.74,20.49,20.49,0,0,0,8.92,1.85,5.7,5.7,0,0,0,3.83-1.44,6.07,6.07,0,0,0,1.62-5.11,17.69,17.69,0,0,0-1.52-5.47c-1.06-2.57-2.14-5.13-3.09-7.75A10.72,10.72,0,0,0,96.37,138c-.94-1.07-2-2.07-2.91-3.11-.51-.56-1-1.16-1.45-1.71-.41,3-.91,6-1.17,8.94a28.69,28.69,0,0,0,0,6.35c.2,1.47,1.11,2.85,1.7,4.27a5.27,5.27,0,0,1,.18.71l-.22.07c-.09-.07-.22-.13-.27-.23a40.14,40.14,0,0,1-1.72-3.71c-.81-2.34-.52-4.77-.25-7.17.24-2.06.62-4.11.82-6.18.3-3.25.51-6.52.76-9.78,0-.58.1-1.16.16-1.74a5.89,5.89,0,0,0-1,1.23c-.55.88-.55.89-1,.78a1.31,1.31,0,0,1,.09-.28c1.75-2.64,3.4-5.35,5.29-7.89a6.41,6.41,0,0,1,7.65-2.09c1.71.63,3.38,1.35,5.1,2a32.2,32.2,0,0,0,13.24,2.2,3.16,3.16,0,0,0,2.22-1,5.88,5.88,0,0,0,.92-6.39.86.86,0,0,1,.4-1.31c.5-.28,1-.53,1.6-.83-1-.72-1.31-2.2-2.91-2.33a4.6,4.6,0,0,1,1.08-1.19,18.84,18.84,0,0,0,5.4-5.49,1.8,1.8,0,0,0,.25-1.68,2.84,2.84,0,0,1,1.78-3.82,9.21,9.21,0,0,0,1.71-.8c2.32-1.64,2.53-3.27,1.28-5.23-.19-.3-.43-.57-.62-.87-1.41-2.13-2.93-4.2-4.18-6.43a11,11,0,0,1-.85-9.33c-.24-.14-.49-.27-.72-.42-1-.67-1.92-1.42-2.95-2a5,5,0,0,0-4.26-.48,14.31,14.31,0,0,0-5.73,3.62,2.14,2.14,0,0,1-.54.29l-.18-.19a6.51,6.51,0,0,1,.91-1.35c1.33-1.21,2.7-2.38,4.09-3.52a6.08,6.08,0,0,1,6.28-1.07c1.38.5,2.7,1.15,4.16,1.78-.31-2.68-.48-5.42-.94-8.11a31.17,31.17,0,0,0-3.82-10.67,1.09,1.09,0,0,0-1.85-.28c-.69.59-1.37,1.21-2,1.85a2.69,2.69,0,0,0-.79,1.07,2.08,2.08,0,0,1-1.4,1.57c-3.89,1.25-6.09,4.2-7.78,7.66-1,2.14-1.91,4.38-3.15,6.4C107,73,105,75.83,103,78.63a10.79,10.79,0,0,1-13,3.23c-.79-.39-1.54-.85-2.37-1.31a2,2,0,0,1,0,.3c0,.11,0,.22-.08.35-.12,0-.21,0-.26-.06a.71.71,0,0,1-.19-.23,9.38,9.38,0,0,0-6.31-4.49A5.54,5.54,0,0,0,74,80a9.53,9.53,0,0,0,.52,8.22,32.83,32.83,0,0,0,8.41,10,14.59,14.59,0,0,0,3.56,2.14c1.51.67,2.63.12,3.37-1.34A2.23,2.23,0,0,1,90.29,98.61ZM72,35.94l0,0c.09.19.16.39.26.58A54.49,54.49,0,0,0,78.5,46,40,40,0,0,0,92.1,57.21c7,3.35,13.93,3.63,20.85-.12,2.13-1.16,4.25-2.33,6.81-2.38a2.9,2.9,0,0,0-1.57-.25,46.7,46.7,0,0,0-4.78,1.69,24.37,24.37,0,0,1-12.17,2A28,28,0,0,1,89.36,53.8c-4.47-2.79-8-6.56-11.46-10.5C75.85,40.93,74,38.4,72,35.94Zm.38-3.19L72.2,33a3.6,3.6,0,0,0,.28.4A89.31,89.31,0,0,0,84.93,45.19,45.16,45.16,0,0,0,98.21,52.6,16.66,16.66,0,0,0,105,53.86c2.29-.2,4.57-.57,6.85-.87a4.19,4.19,0,0,0-1.27-.06c-1.12.07-2.23.21-3.34.17a24.3,24.3,0,0,1-9.34-2.2A69.75,69.75,0,0,1,78.87,38.29C76.79,36.36,74.57,34.59,72.41,32.75ZM106.8,71.61l-.4.29a16.45,16.45,0,0,1-10.81,3.81,22,22,0,0,1-11.31-3.55A64,64,0,0,1,71.75,61.35a45.93,45.93,0,0,1-8.19-12A30.91,30.91,0,0,1,60.9,39.7c-.65.73-.83,2.68-.5,4.08A34.73,34.73,0,0,0,64.7,54,54.51,54.51,0,0,0,77.13,67.83c1.66,1.36,3.39,2.66,5.14,3.92a23,23,0,0,0,15.09,4.33A14.28,14.28,0,0,0,106.8,71.61Zm2.51-5.88c-.7.48-1.38,1-2.1,1.44a12.15,12.15,0,0,1-8.82,1.24A27,27,0,0,1,83.17,60a37.57,37.57,0,0,1-6.36-10.14c-1.75-3.81-3.29-7.73-4.92-11.6-.34-.81-.72-1.61-1.08-2.41l-.19.07c.83,2.46,1.63,4.94,2.5,7.39a60.51,60.51,0,0,0,7.2,14.85c3.51,5,8,8.77,14,10.43a18,18,0,0,0,10.84.08A9.07,9.07,0,0,0,109.31,65.73Zm-1.06,1.93A12.62,12.62,0,0,1,100.36,70a23.73,23.73,0,0,1-11.54-3.09,27.75,27.75,0,0,1-9.49-9.26,66.46,66.46,0,0,1-7.09-15.24c-.62-1.76-1.18-3.53-1.77-5.3a.84.84,0,0,0,0,.52c.69,2.3,1.33,4.62,2.07,6.9A57.5,57.5,0,0,0,79.39,59.3c2.72,4,6,7.4,10.38,9.48,4.19,2,8.56,2.94,13.2,1.9A9.49,9.49,0,0,0,108.25,67.66ZM60.5,46.47a.94.94,0,0,0,0,.29A57.8,57.8,0,0,0,63,53.42a50,50,0,0,0,17.9,19.49,24.08,24.08,0,0,0,15,4.16c.89-.06,1.76-.26,2.64-.39-.83-.06-1.64-.08-2.44-.06a22.18,22.18,0,0,1-13.21-3.83A73.89,73.89,0,0,1,73,64.92,48.56,48.56,0,0,1,62.57,51.18C61.82,49.65,61.19,48.05,60.5,46.47Zm46.56,11c-1.42-.12-3-.13-4.49-.4a34.39,34.39,0,0,1-13.12-5.57c-5.72-3.81-10.39-8.74-14.7-14-1.14-1.39-2.24-2.8-3.35-4.21a9.72,9.72,0,0,0,1,1.93A73.45,73.45,0,0,0,85,49.83a31.49,31.49,0,0,0,11.45,6.73A21.19,21.19,0,0,0,107.06,57.42ZM79.26,50.3l-.19.18c1.57,1.85,3,3.8,4.72,5.53a30,30,0,0,0,17.6,9,11.08,11.08,0,0,0,7.93-1.58,15.17,15.17,0,0,0,3.75-3.79,3.72,3.72,0,0,0-.68.5A14.24,14.24,0,0,1,108,62.94a15.44,15.44,0,0,1-8.55.17,34.89,34.89,0,0,1-16.77-9.17C81.48,52.79,80.4,51.52,79.26,50.3Zm5.15,26.35,0,0c-1.86-1.29-3.8-2.49-5.58-3.88-1.41-1.11-2.58-2.51-3.93-3.7a55.75,55.75,0,0,1-8.64-9.39,36.2,36.2,0,0,1-6.13-12.56c-.39-1.67-.56-3.4-.84-5.1a5,5,0,0,0-.32,1.48,25.25,25.25,0,0,0,2.85,11.32A45.33,45.33,0,0,0,72,68.08a45.27,45.27,0,0,0,11.69,8.26Zm19.15-4.32,0-.25a20.87,20.87,0,0,1-9.27.13A24.3,24.3,0,0,1,86.34,69a32.1,32.1,0,0,1-9-7.34c-1.46-1.79-2.69-3.75-4.09-5.59a47,47,0,0,1-5.94-9.88A25.53,25.53,0,0,1,64.82,38c-.09-1.22,0-2.46,0-3.69A2.28,2.28,0,0,0,64,35.44a6.9,6.9,0,0,0,.23,4.12A68.5,68.5,0,0,0,72,55.84c3.49,5.28,7.57,10,13,13.36,4.5,2.78,9.33,4.44,14.71,3.9C101,73,102.27,72.59,103.56,72.33Zm-34.84-39a4.94,4.94,0,0,0,0,.6c.07.53.12,1.06.22,1.58a76.32,76.32,0,0,0,4.62,15.54,42.18,42.18,0,0,0,9.17,14.22c5.35,5.22,11.69,7.6,19.17,6.62a10.38,10.38,0,0,0,5.31-2.36.74.74,0,0,0-.39.14,12.34,12.34,0,0,1-6.17,1.9A22.51,22.51,0,0,1,86.5,67.51a30.94,30.94,0,0,1-9.14-10.45,72.72,72.72,0,0,1-6.68-16.74C70,38.07,69.41,35.81,68.72,33.33Zm48.86,15.34.1-.23c-.87-.42-1.71-.89-2.6-1.23C110.55,45.46,106,43.7,101.45,42c-7.41-2.69-14.86-5.31-22.3-7.95-1.4-.5-2.82-1-4.23-1.46l-.11.25c1.67.82,3.29,1.77,5,2.43,2.63,1,5.35,1.74,8,2.7,6.64,2.41,13.23,4.91,19.87,7.32C111,46.51,114.27,47.56,117.58,48.67ZM48,57.9l-.29,0c0,.32-.07.65-.12,1-.76,4.75-1.59,9.49-2.28,14.25a22,22,0,0,0,.31,8.7,32.31,32.31,0,0,0,7.19,13.15,13.85,13.85,0,0,0,6.43,4.17,8.94,8.94,0,0,0,8.17-1.26,3.3,3.3,0,0,0,.3-.22c.07-.07.12-.15.13-.15a15.74,15.74,0,0,1-2.95,1.2,10.66,10.66,0,0,1-7.62-1.28,17.37,17.37,0,0,1-4.55-3.76A25.79,25.79,0,0,1,46.11,75.9a75.57,75.57,0,0,1,1.25-13.76C47.65,60.74,47.8,59.31,48,57.9Zm62.81-13C99.29,39.12,87.5,34,74.47,31.74Zm.2,6.43c-1.62-.42-3.74-.91-5.82-1.5a59.24,59.24,0,0,1-20.08-9.45,92.18,92.18,0,0,0-9.33-6c-.16-.1-.34-.16-.5-.24,1.12,1,2.3,1.94,3.49,2.83A96.47,96.47,0,0,0,97,48.19C101.6,50.26,106.34,51.77,111,51.28ZM62.25,38,62,38a10.8,10.8,0,0,0,0,2.73A41.89,41.89,0,0,0,64,46.38,51.85,51.85,0,0,0,75.33,62.52a50.66,50.66,0,0,0,11.1,8.94,20.14,20.14,0,0,0,14,2.57,9.6,9.6,0,0,0,3.83-1.5.71.71,0,0,0-.14,0,17,17,0,0,1-10.36.79,26.8,26.8,0,0,1-12.29-6c-2.33-2-4.47-4.2-6.6-6.41A52.58,52.58,0,0,1,65,47.45C63.55,44.46,62.16,41.45,62.25,38Zm-4.09,5.12a14.65,14.65,0,0,0-.28,1.47,18.16,18.16,0,0,0,1.61,9.17C63.44,62.85,70,69.51,78.6,74.31a3.35,3.35,0,0,0,.38.14.3.3,0,0,0-.14-.23,58.1,58.1,0,0,1-11.37-10C62.22,58.13,58.47,51.39,58.16,43.12ZM121,51.71a8,8,0,0,0-4.08-2.78c-3.65-1.2-7.31-2.36-10.93-3.66-7-2.52-14.08-5.13-21.11-7.69-.77-.28-1.57-.49-2.35-.74a1.33,1.33,0,0,0,.63.47c5.9,2.41,11.78,4.89,17.72,7.21a79.58,79.58,0,0,0,12.46,4.07C116.06,49.16,118.76,49.88,121,51.71Zm-46.45-10c0-.11,0,0,0,.06A36,36,0,0,0,95,59.65a23.16,23.16,0,0,0,11.23,1.2,22.31,22.31,0,0,0,10.61-5,3.27,3.27,0,0,0-.5.14c-1,.47-2,.91-2.93,1.43a22,22,0,0,1-19.62,1.11A35.68,35.68,0,0,1,80.5,49C78.36,46.66,76.45,44.09,74.54,41.73Zm2.56,34a19.27,19.27,0,0,1-11-5.12,37.94,37.94,0,0,1-7.76-9.7,33.48,33.48,0,0,1-3.46-8.6,1.92,1.92,0,0,0,0,.68,38.14,38.14,0,0,0,4.69,12.2c3.59,6,8.58,10,15.66,11A2.55,2.55,0,0,0,77.1,75.72ZM79,51.2a.34.34,0,0,0,0,.12c1.47,2,2.84,4.14,4.42,6.08C86.34,61,90.32,63.2,94.52,65a19.77,19.77,0,0,0,8.42,2,9.5,9.5,0,0,0,6.25-2.81c-.78.32-1.61.7-2.47,1a14.8,14.8,0,0,1-8-.14,30.53,30.53,0,0,1-15.6-8.9C81.68,54.55,80.34,52.83,79,51.2ZM46.63,61.78l-.18,0c-.7,3.15-1.47,6.3-2.09,9.47a26.54,26.54,0,0,0-.2,9.53,28.8,28.8,0,0,0,2.59,7.51,28.66,28.66,0,0,0,6,9,11,11,0,0,0,9.05,2.92,14.32,14.32,0,0,1-10.18-5.75,51.8,51.8,0,0,1-4-6.15,21.39,21.39,0,0,1-3-12.83c.29-3.22.83-6.42,1.28-9.63C46.12,64.44,46.39,63.11,46.63,61.78ZM48,69.45a41.22,41.22,0,0,0,.62,12.46c1.09,4.91,3.2,9.24,7.32,12.35a13.82,13.82,0,0,0,7.87,3.26,5.51,5.51,0,0,0,5.53-3.43c-2.65,2.9-5.84,3-9.26,1.77a13.94,13.94,0,0,1-6.39-5.11,29.36,29.36,0,0,1-4.94-13.41C48.37,74.63,48.24,71.89,48,69.45ZM67.45,83a26.48,26.48,0,0,1-3,.43c-3.44.1-6-1.62-8-4.19-2.66-3.34-4.13-7.29-5.47-11.28-.52-1.55-.82-3.17-1.22-4.76a32.49,32.49,0,0,0,1,7.34c1.07,3.87,2.46,7.59,5.24,10.59C59.32,84.74,63,85.41,67.45,83Zm50-36.63.11-.16c-1.09-.67-2.17-1.39-3.29-2-9.85-5.41-19.85-10.43-30.84-13.14a14,14,0,0,0-5-.41C92.35,33.72,105,39.93,117.47,46.35Zm-.53,7.33-.07-.22c-1.39.43-2.81.77-4.16,1.3A17.67,17.67,0,0,1,105.87,56a27.58,27.58,0,0,1-13-3.91C88,49.38,84.07,45.55,80,41.92c-1.15-1-2.22-2.14-3.33-3.21l-.16.16c2.07,2.15,4.09,4.36,6.23,6.44A44.47,44.47,0,0,0,95,54a28.8,28.8,0,0,0,10.26,2.83C109.55,57.12,113.18,55.18,116.94,53.68ZM49,64.58c0,1.15,0,2.27,0,3.38a34.47,34.47,0,0,0,2.9,13c1.41,3.15,3.25,6,6.4,7.68S65,91,68.47,89.42a5.68,5.68,0,0,0,2.92-2.67,10,10,0,0,1-9.11,2.58c-4.12-.7-6.86-3.22-8.65-6.84a47.33,47.33,0,0,1-3.82-13.14C49.53,67.76,49.29,66.17,49,64.58ZM31.22,19.63A13.8,13.8,0,0,1,38.92,18a87.73,87.73,0,0,1,15.66,1.91c2.64.48,5.26,1.07,7.92,1.4,2.22.27,4.35.57,6,2.33,0-.11,0-.17,0-.19s-.22-.28-.34-.41a8.4,8.4,0,0,0-4.86-2.29c-5.25-1-10.5-1.93-15.76-2.83A44.53,44.53,0,0,0,36,17.09a14.39,14.39,0,0,0-3.57.9A1.78,1.78,0,0,0,31.22,19.63Zm34,78.4a11.36,11.36,0,0,1-6.6-1.42C53.17,93.79,50,89.2,48.44,83.36,47,77.69,47.22,72,47.75,66.19c.16-1.7.33-3.4.5-5.11A4.19,4.19,0,0,0,48,62a68.64,68.64,0,0,0-1.35,12.54A25.74,25.74,0,0,0,53,93.08c2.13,2.49,4.64,4.48,8,5.09A8,8,0,0,0,65.25,98Zm41.84-31.56-.38.16a9.93,9.93,0,0,1-6.16.75A33,33,0,0,1,88,62.17c-4-2.54-6.8-6.17-9.24-10.14l-.84-1.42a18.52,18.52,0,0,0,1.44,3.09C84.07,62.09,91,67.16,100.72,68.15A9.4,9.4,0,0,0,107.09,66.47ZM62,43.61l.09,0c0,.17.06.34.1.5a37.74,37.74,0,0,0,6.63,13A69,69,0,0,0,82.27,70.15a25.25,25.25,0,0,0,8.42,4.29,18,18,0,0,0,8.09.47c-.92,0-1.81,0-2.69,0a22.32,22.32,0,0,1-11-3.61A61.85,61.85,0,0,1,66,51.38C64.47,48.9,63.33,46.21,62,43.61ZM75.56,31.09l0,.26.49.15c3.1.76,6.22,1.41,9.28,2.29,9.53,2.73,18.45,6.93,27.3,11.32,1.86.93,3.81,1.69,5.72,2.53a3,3,0,0,0-1-.74l-4.68-2.36a169.31,169.31,0,0,0-20.06-9c-4.43-1.56-8.78-3.4-13.48-4.06C77.94,31.29,76.75,31.21,75.56,31.09Zm2,44.13c-.2-.12-.28-.19-.37-.23a45.75,45.75,0,0,1-10.47-6.11A30.07,30.07,0,0,1,55.69,51a29.94,29.94,0,0,1-.35-3.8,11,11,0,0,0,.19,5.2A35.44,35.44,0,0,0,66.39,70.12,18.23,18.23,0,0,0,77.59,75.22ZM29.15,34.16A7,7,0,0,0,32.44,37a13.41,13.41,0,0,0,8.2.68c5.85-1.06,11-3.9,16.36-6.31-.7.18-1.37.43-2,.67C49.7,33.92,44.51,36,38.89,36.46,35.41,36.78,32.05,36.48,29.15,34.16ZM120,51.59l.06-.11c-1.37-.56-2.7-1.23-4.11-1.66-2.28-.68-4.64-1.08-6.89-1.83q-11.26-3.75-22.18-8.43l-1.77-.77a.86.86,0,0,0,.43.43,142.86,142.86,0,0,0,25.34,10.29C113.84,50.39,116.94,50.9,120,51.59ZM61.45,32l-.19-.22c-.32.2-.64.39-.95.6a64.51,64.51,0,0,1-15.84,7.42,27.28,27.28,0,0,1-7.75,1.38,11.28,11.28,0,0,1-5-1,6,6,0,0,0,2.95,1.63,16.1,16.1,0,0,0,8.18-.38A52.17,52.17,0,0,0,57.19,35C58.66,34.1,60,33,61.45,32Zm6.72-4.27.18-.18a17.06,17.06,0,0,0-2-1.48A11.44,11.44,0,0,0,60.61,25c-2.71.07-5.41.47-8.12.51-3.82,0-7.65-.14-11.48-.2a32.3,32.3,0,0,0-9.35.85,8.71,8.71,0,0,0-3.26,1.56c1.06-.33,2.07-.72,3.12-1A42.46,42.46,0,0,1,41.9,26.2c2.35.06,4.71.38,7.06.29,3.26-.13,6.51-.59,9.77-.82S65.32,25.73,68.17,27.75Zm16,26.61a33.11,33.11,0,0,0,10.76,6.85,23.23,23.23,0,0,0,9.7,1.83,10.4,10.4,0,0,0,7.27-3.34l-.54.21a20.79,20.79,0,0,1-11.83,1.42,32.2,32.2,0,0,1-14-6Zm30.07-2.09V52c-1.22-.06-2.43-.16-3.65-.16a26.64,26.64,0,0,1-8.77-1.16,73.6,73.6,0,0,1-18-9.39c-1-.69-2-1.4-3-2.09a.57.57,0,0,0,.25.4,70.6,70.6,0,0,0,14.24,9.54,25,25,0,0,0,10.11,3.27C108.37,52.55,111.31,52.32,114.25,52.27ZM54.67,46.22c-.12.24-.26.48-.37.72a10.08,10.08,0,0,0-.64,5.53,35.66,35.66,0,0,0,4.13,12.78c2.58,4.63,6.14,8.16,11.28,9.88a2.86,2.86,0,0,0,.42.1,24.42,24.42,0,0,1-5.89-4.16c-3.92-3.77-6.28-8.46-8-13.53C54.33,53.85,53.51,50.13,54.67,46.22ZM68,24.06l.14-.23A21,21,0,0,0,66,22.53a10.33,10.33,0,0,0-4.92-.74,54.4,54.4,0,0,1-11-.86,53.68,53.68,0,0,0-11.73-1,12.55,12.55,0,0,0-6.56,1.87A20.48,20.48,0,0,0,30,23.44l.13.14A19,19,0,0,1,38.77,21a86,86,0,0,1,13.88.83c2.41.26,4.85.38,7.27.43C62.73,22.34,65.56,22.2,68,24.06ZM28.68,26.14a12.09,12.09,0,0,1,5.78-2.75,28,28,0,0,1,3.77-.34c3.42-.11,6.84-.14,10.26-.22.71,0,1.42-.09,2.12-.14l2.11-.17a2.9,2.9,0,0,0-.84-.19,62.59,62.59,0,0,0-14-.7,16.07,16.07,0,0,0-6.39,1.77A6.44,6.44,0,0,0,28.68,26.14Zm33.18,2.79a4.86,4.86,0,0,0-.55.1c-1.13.3-2.25.58-3.37.91-3.42,1-6.82,2.07-10.25,3a51.61,51.61,0,0,1-11.5,2,17.49,17.49,0,0,1-5.88-.67,12.83,12.83,0,0,0,2.52,1.18c3.2,1,6.42.59,9.62-.09C49.15,34,55.41,31.17,61.86,28.93Zm2,3.42-.2-.19c-.55.63-1.12,1.24-1.66,1.88a39.58,39.58,0,0,1-13.1,10c-3.28,1.59-6.67,2.86-10.4,2.78-1.1,0-2.19-.23-3.26-.35l.41.21a12.35,12.35,0,0,0,6.79.81,23.15,23.15,0,0,0,10-4.12A52.77,52.77,0,0,0,63.9,32.35ZM31,40.55A6.75,6.75,0,0,0,34,43a12.44,12.44,0,0,0,8.42.32A47.6,47.6,0,0,0,61.2,33.13c.33-.28.63-.59.94-.88a1,1,0,0,0-.57.24c-1.85,1.29-3.63,2.7-5.56,3.84-4.93,2.9-10.07,5.35-15.79,6.24C36.92,43.08,33.73,42.87,31,40.55Zm-1.5-3.62a5.76,5.76,0,0,0,4.23,3.42,16.19,16.19,0,0,0,7.39-.22,55,55,0,0,0,14.27-5.49c2.25-1.21,4.41-2.58,6.62-3.88l-.1-.18c-1,.44-2,.85-3,1.31-4,1.87-8,3.84-12.13,5.6A25,25,0,0,1,36,39.91,8.4,8.4,0,0,1,29.52,36.93ZM48.89,73.58c0,.16,0,.31,0,.46,0,.42.09.85.14,1.28A36.93,36.93,0,0,0,51.64,86a17.24,17.24,0,0,0,7,8.62,8.77,8.77,0,0,0,7.56,1.07,5.74,5.74,0,0,0,3.35-3.15.61.61,0,0,0-.32.16,8.75,8.75,0,0,1-10.94.68c-2.81-1.88-4.51-4.62-5.91-7.58A44.27,44.27,0,0,1,48.89,73.58Zm19,3.55c0-.08,0-.12-.05-.13l-.29-.07a17.88,17.88,0,0,1-9-4.26,26.09,26.09,0,0,1-6.1-8.91c-1-2.31-1.81-4.73-2.71-7.1.09.08.07.21.09.33A34.36,34.36,0,0,0,53.24,67.8a17.48,17.48,0,0,0,7.75,8A15.14,15.14,0,0,0,67.9,77.13Zm.23-42.77a15.85,15.85,0,0,0,.36,6.47,67.55,67.55,0,0,0,5.36,14.08,32.55,32.55,0,0,0,6,8.56c.34.34.71.65,1.07,1C73.62,55.68,70.28,45.29,68.13,34.36ZM85.88,40.2C91.17,44.81,109,51.61,114,50.8a78.73,78.73,0,0,1-14.42-4.64C94.91,44.25,90.29,42.13,85.88,40.2ZM57.17,45a16.56,16.56,0,0,0,.94,9.21A39.55,39.55,0,0,0,76.77,74.08a2,2,0,0,0,.4.06,44.52,44.52,0,0,1-11.59-9.69C60.82,58.83,57.22,52.69,57.17,45Zm-3.69,2.51a2.37,2.37,0,0,0-.24.15l-.18.24a8.36,8.36,0,0,0-1,6.79,33.69,33.69,0,0,0,7.72,15.12,27.34,27.34,0,0,0,2.69,2.46c.11-.15.11-.18.1-.19l-.77-.74a28,28,0,0,1-7.24-12.55C53.43,55.14,52.42,51.46,53.48,47.51Zm-26-17.75c1.09-.43,2.13-1,3.23-1.27a25.32,25.32,0,0,1,8.76-.55,40,40,0,0,0,10.81-.54l2-.41a42.13,42.13,0,0,1-5,.05A64.14,64.14,0,0,0,33.75,27a27.25,27.25,0,0,0-4.41,1.07A2.72,2.72,0,0,0,27.45,29.76ZM30.57,22c.78-.45,1.46-.9,2.18-1.25a16.32,16.32,0,0,1,6.89-1.34c4.43-.08,8.77.81,13.14,1.41,1.85.25,3.72.43,5.58.64l0-.21a6.52,6.52,0,0,0-.63-.18c-4-.69-8-1.45-12-2.05a37.69,37.69,0,0,0-9.49-.38,9.2,9.2,0,0,0-4,1.17A3.18,3.18,0,0,0,30.57,22Zm32.59-1.79,0-.11c-1.87-.68-3.75-1.32-5.6-2C52.23,16,46.88,13.93,41,13.92a16,16,0,0,0-6.13.83,22.68,22.68,0,0,0-2.17,1.17c1.24-.23,2.39-.68,3.57-.82A36,36,0,0,1,48,15.76a98.82,98.82,0,0,1,12.24,3.76A25.55,25.55,0,0,0,63.16,20.17ZM51.46,49.79c-.11.22-.22.44-.31.66A9.61,9.61,0,0,0,51,56.58,28.65,28.65,0,0,0,64.09,74.26a16.68,16.68,0,0,0,8.1,2.54c-.6-.19-1.21-.33-1.82-.49C65.49,75,61.16,72.75,58,68.61a38.53,38.53,0,0,1-5.26-9.39A17.38,17.38,0,0,1,51.46,49.79Zm-22.9-19.1v.25c3,.09,6,.21,9,.26A15.39,15.39,0,0,0,40.72,31c2.7-.54,5.4-1.1,8.06-1.8,5.46-1.43,10.94-2.59,16.65-1.72a21.18,21.18,0,0,0-3.65-.77,28.29,28.29,0,0,0-11.14,1.41,39.25,39.25,0,0,1-11,2.26c-2.15.05-4.31,0-6.46,0C31.66,30.42,30.11,30.58,28.56,30.69Zm59.12-.94c12.38,2.37,22.92,8.45,32.67,16.17a50.54,50.54,0,0,0-4.72-4.08A70.75,70.75,0,0,0,96,31.18,27.22,27.22,0,0,0,87.68,29.75Zm-57.63-3.6c.63-.19,1.24-.41,1.87-.56,3.89-1,7.85-.79,11.81-.7,3,.08,6.08.15,9.12.09s5.78-.44,8.66-.42,5.73.52,7.55,3.3a2.33,2.33,0,0,0-1.34-2.28,10.1,10.1,0,0,0-2.08-.91c-3.9-1.12-7.89-.85-11.86-.67-2.76.12-5.51.4-8.28.49-3.42.12-6.84.07-10.26.2A10.94,10.94,0,0,0,30.05,26.15ZM88.57,48.48c.15.22.18.29.23.32a35.3,35.3,0,0,0,10,5.42,19,19,0,0,0,9.35,1.07c2.48-.46,4.9-1.28,7.34-1.94a1.67,1.67,0,0,0-1-.17c-2.06.27-4.11.61-6.18.81a27,27,0,0,1-5.74.24,30.65,30.65,0,0,1-11.21-4.07C90.54,49.65,89.65,49.11,88.57,48.48ZM32.4,17.26a15.67,15.67,0,0,1,5.46-.81c5.27,0,10.42,1,15.58,1.91l3,.54c0-.13-.07-.17-.11-.18l-1.58-.54C49,16.25,43.17,15,37.05,15.53A7.32,7.32,0,0,0,32.4,17.26ZM69.35,77.68H68.07a15.14,15.14,0,0,1-12.5-5.46,25.32,25.32,0,0,1-4.39-7.77c-.09-.24-.18-.47-.26-.71l-.24-.66a24.32,24.32,0,0,0,3.53,9.14,12.65,12.65,0,0,0,7.68,5.57A16.93,16.93,0,0,0,69.35,77.68ZM93.72,29.9a59.55,59.55,0,0,1,14.43,6.33,69.54,69.54,0,0,1,12.77,9.28,2.25,2.25,0,0,0-.46-.69,39.85,39.85,0,0,0-6.33-5.56c-4.65-3.42-9.47-6.53-15-8.27A14.43,14.43,0,0,0,93.72,29.9Zm26,16.45c-.25-.2-.48-.43-.74-.62-1.76-1.33-3.48-2.71-5.29-4-7.49-5.16-15.5-9.19-24.46-11.07-2-.4-3.93-.61-5.89-.91l0,.24c6.51,1.54,13.07,2.95,19.18,5.79A102.57,102.57,0,0,1,119.76,46.35ZM45.89,87.92a31.33,31.33,0,0,0,5.34,9.25,16.29,16.29,0,0,0,4.87,3.94c3.6,1.83,7.76,1.13,11.15-1.59a17.85,17.85,0,0,1-6,1.24,11.63,11.63,0,0,1-7.4-2,18.32,18.32,0,0,1-4.91-5.43C47.83,91.54,46.88,89.69,45.89,87.92Zm.89-59.27c-3.35-.09-6.94-.25-10.53-.28a17.24,17.24,0,0,0-6.21.86c-.68.25-1.32.6-1.84.84,2.86-.07,5.79-.22,8.72-.19A33.38,33.38,0,0,0,46.78,28.65Zm43.66,3.68c3.7,1.61,8.08,3.4,12.36,5.4s8.45,4.18,12.32,6.1C107.64,38.5,99.27,34.15,90.44,32.33ZM73,80.72l-.44.3c-1.47,1.16-2.9,2.38-4.41,3.49-4.4,3.22-9.37,2.68-13-1.36a3.22,3.22,0,0,0-.28-.24l-.14.15c.69.77,1.34,1.58,2.08,2.3a7.67,7.67,0,0,0,9.5,1.33c2-1.18,3.81-2.77,5.72-4.14A2,2,0,0,0,73,80.72Zm-3.66,2c-.93.43-1.85.89-2.8,1.29-3.55,1.49-6.92,1.26-9.81-1.44a31.09,31.09,0,0,1-3.42-4.14,16.66,16.66,0,0,1-1.17-2.12,17.26,17.26,0,0,0,3.43,6.52,8.94,8.94,0,0,0,4,2.79C63.51,86.87,66.6,85.31,69.37,82.72ZM31.13,41.65l-.16.24a23.58,23.58,0,0,0,2.76,1.93,11.73,11.73,0,0,0,7.56.9,35.56,35.56,0,0,0,16.34-7.58c.48-.37.9-.81,1.35-1.22a12,12,0,0,0-2,1.19c-4.44,2.86-9,5.42-14.23,6.66C38.57,44.76,34.53,44.9,31.13,41.65Zm93,7.36c0,.14,0,.09,0,.05a2.09,2.09,0,0,0-.13-.35,25.55,25.55,0,0,0-3.44-5.35C115.43,37.6,108.88,34,102,30.89a14.5,14.5,0,0,0-2.75-.64l-.06.2a46.77,46.77,0,0,1,12.95,6.71c3,2.14,6.1,4.24,8.52,7.08C121.92,45.77,123,47.48,124.14,49ZM59.4,18.15l.07-.15c-1.21-.55-2.41-1.11-3.62-1.65-5.1-2.3-10.36-3.93-16-3.77a13.35,13.35,0,0,0-5.27,1,3.6,3.6,0,0,0-1.86,1.61A22.38,22.38,0,0,1,35.47,14a23.89,23.89,0,0,1,10.1-.22A53.71,53.71,0,0,1,56.31,17ZM51.61,82.21a22.22,22.22,0,0,0,3.64,7.08,10,10,0,0,0,9.62,3.63A7.67,7.67,0,0,0,69,91a17,17,0,0,1-3.12,1,11.48,11.48,0,0,1-11-4.5A48.82,48.82,0,0,1,51.61,82.21ZM63.19,36.3a2.22,2.22,0,0,0-.14.32,8.5,8.5,0,0,0,.26,5.23,42,42,0,0,0,7.58,13.74,2.12,2.12,0,0,0,.36.28c-.14-.29-.17-.38-.22-.46a74.53,74.53,0,0,1-6.52-13.34A16.1,16.1,0,0,1,63.19,36.3ZM41,31.62c7-.22,14.18-2.46,21.48-3.81a31,31,0,0,0-9.64.91C48.74,29.71,44.65,30.73,41,31.62Zm-11.56,4a6.46,6.46,0,0,0,3.32,3.07,11.28,11.28,0,0,0,6.27.54,33.16,33.16,0,0,0,8.34-2.5c3.34-1.46,6.64-3,10-4.54l-.1-.23-3.88,1.78c-4.6,2.14-9.22,4.21-14.35,4.72C35.44,38.81,32.13,38.24,29.44,35.61Zm25,38.94a12.37,12.37,0,0,0,17.43,4.84C65.13,81,59.14,80.07,54.43,74.55ZM32.71,24.25l0,.25H33c1.73-.18,3.46-.48,5.2-.54,2.61-.08,5.23.1,7.84,0,3.92-.14,7.84-.52,11.77-.61,3.51-.09,7,0,10.28,1.77A5.65,5.65,0,0,0,63.85,23q-5.62-.07-11.25.08c-3.19.09-6.38.38-9.57.5-2.1.08-4.22-.06-6.32.05A36.46,36.46,0,0,0,32.71,24.25ZM57,40.52l-.58.48a33.83,33.83,0,0,1-7.69,5.13A18.1,18.1,0,0,1,38.62,48c-.91-.12-1.81-.37-2.77-.58C41.6,50.76,52.79,47.14,57,40.52Zm1.38-23.7A47.58,47.58,0,0,0,48.3,12.26a21.7,21.7,0,0,0-8.16-1.14,6.56,6.56,0,0,0-3.82,1.25,29.64,29.64,0,0,1,11.45.55A60.18,60.18,0,0,1,58.37,16.82ZM56.42,45.46a1.28,1.28,0,0,0-.1.17c0,.14-.09.28-.13.43a10.89,10.89,0,0,0,.1,5.35A30.11,30.11,0,0,0,69.12,70a1.2,1.2,0,0,0,.27.08.41.41,0,0,0-.19-.27,40.7,40.7,0,0,1-9.7-11.41,20.38,20.38,0,0,1-3.07-9.06C56.37,48,56.42,46.74,56.42,45.46Zm17.19,34-.07-.25C67.47,82.69,61.65,82.88,56.21,78a.64.64,0,0,0,.13.32c.37.45.73.91,1.12,1.34,2.31,2.51,5.14,3.87,8.52,3a63.15,63.15,0,0,0,7.21-2.75C73.36,79.84,73.47,79.63,73.61,79.49Zm-8-60.11-.93-.48c-3.28-1.75-6.58-3.46-9.83-5.27a27.9,27.9,0,0,0-7.49-3.05,15.36,15.36,0,0,0-6.19-.17c1.55.21,3.1.32,4.6.65a44.62,44.62,0,0,1,12.47,5A39.16,39.16,0,0,0,65.66,19.38ZM81,73.83c.36.25.71.51,1.08.73,4.48,2.77,9.25,4.44,14.62,3.74a12.5,12.5,0,0,0,6-2.56,19.93,19.93,0,0,1-11.07,1.77A32.5,32.5,0,0,1,81,73.83ZM66.78,33a1.55,1.55,0,0,0-1.28,1.28,12.22,12.22,0,0,0,.07,5.35,40.41,40.41,0,0,0,5.67,12.76s.08.06.26.17c-.2-.39-.31-.64-.44-.88a54.79,54.79,0,0,1-4.42-11C66,38.15,65.4,35.62,66.78,33ZM50,31.13a76.89,76.89,0,0,1-20,.89C36.71,34.41,43.32,32.68,50,31.13Zm6.46,11.22c-6,6.45-13.19,8.28-21.56,5.45A13.08,13.08,0,0,0,37.05,49c3,1.15,6,.86,9,.17A17.23,17.23,0,0,0,56.41,42.35ZM74.09,77.87,74,77.72a5,5,0,0,0-.67,0c-2.39.32-4.76.77-7.15.94a12.7,12.7,0,0,1-9.89-3.27c-.12-.1-.25-.17-.38-.26a11.86,11.86,0,0,0,4.67,3.31c4.38,1.77,8.74,1.25,13.09-.14C73.8,78.24,73.93,78,74.09,77.87Zm-41.73-34c.2.18.39.37.6.54a8.75,8.75,0,0,0,6,1.88A24.84,24.84,0,0,0,49.6,43.09c1.09-.56,2.15-1.2,3.22-1.81a1.65,1.65,0,0,0-.87.26A32.11,32.11,0,0,1,42.67,45C39.15,45.68,35.66,45.79,32.36,43.85Zm73.33-12.08-.11.16.62.34A58.1,58.1,0,0,1,115,37.56c3.61,2.72,6.91,5.73,9,9.87a.7.7,0,0,0,.16.19l.16-.18C120.45,39.4,113.44,35.15,105.69,31.77ZM47.17,9.28c.58.12,1.17.23,1.75.38a31.81,31.81,0,0,1,8,3.6c2.25,1.29,4.54,2.52,6.81,3.77a.3.3,0,0,0-.19-.31c-3-1.95-6-4-9.08-5.82A12.22,12.22,0,0,0,47.17,9.28ZM53,63.59c2.73,6,6.44,11,13.36,12.48A29.62,29.62,0,0,1,53,63.59ZM38.83,50.14c5.06,2.16,12,.14,14.76-4A19.77,19.77,0,0,1,38.83,50.14ZM67.73,33a4.32,4.32,0,0,0-1.2,3.62,18.07,18.07,0,0,0,1.26,6c.93,2.53,2,5,3,7.52L71,50C68.92,44.53,66.53,39.1,67.73,33ZM50.36,97.33c.64.79,1.27,1.59,1.93,2.37,2.35,2.77,5.23,4.26,9,3.58a10.13,10.13,0,0,0,4.35-1.91C59.35,104.39,54.6,101.93,50.36,97.33Zm-2-65.15a.82.82,0,0,0-.22,0c-2.68.48-5.36,1-8,1.41a21.55,21.55,0,0,1-8.46-.4c-1.05-.27-2.06-.7-3.1-1.05a4.4,4.4,0,0,0,1,1,8.64,8.64,0,0,0,4.7,1.28C39.06,34.61,43.7,33.47,48.34,32.18ZM125,108.6l1.29,1.58a1.13,1.13,0,0,0,2,0,2.91,2.91,0,0,0-.19-3.57ZM103.74,76.17A39,39,0,0,1,100,78,18.85,18.85,0,0,1,95.92,79a21.5,21.5,0,0,1-4.32,0c-1.4-.1-2.78-.42-4.18-.65C92.75,81.25,100.21,79.8,103.74,76.17ZM47,57.12l-.16,0c-.36,1.39-.71,2.79-1.09,4.17C44.67,65.15,43.35,69,43,73.06a20.21,20.21,0,0,0,.28,5.75c0-.83,0-1.64,0-2.44A52.44,52.44,0,0,1,45,65.67C45.68,62.83,46.32,60,47,57.12ZM85.83,78.23l-.13.33c.54.26,1.06.58,1.62.79.87.33,1.79.55,2.65.9a11.58,11.58,0,0,0,10.65-.86c.55-.31,1-.73,1.58-1.1C96.72,81.11,91.29,81.31,85.83,78.23Zm-16,11.13c-5.14,2.58-9.66,1.57-13.94-1.55a11.52,11.52,0,0,0,9.72,3.71A6.66,6.66,0,0,0,69.87,89.36Zm1.22-5.14c-1.5,1-3.14,2.19-4.92,3.18a7.86,7.86,0,0,1-6,.54C64.5,90,68.41,88.35,71.09,84.22ZM37.51,50.27c2.94,2.46,7.72,3.29,10.5.57A14.67,14.67,0,0,1,37.51,50.27ZM70,90.94l0-.07c-3.52,3.28-7.52,3.31-11.84,1.62A8.09,8.09,0,0,0,70,90.94Zm55-43.56c-.21-4.92-7.24-12.59-12.77-13.94A23.83,23.83,0,0,1,120,39.07,26.27,26.27,0,0,1,125,47.38ZM49.93,8.75c4.55.67,7.88,3.75,11.72,5.8C58.34,11.41,54.79,8.73,49.93,8.75Zm38.84,71.7c4,3.09,10,1.78,12.29-.66A14.94,14.94,0,0,1,95,81.69C92.79,81.87,90.8,81.08,88.77,80.45Zm21.93-47a40.4,40.4,0,0,1,10.48,8A21.57,21.57,0,0,0,110.7,33.46ZM63.4,17.67l.07-.13c-.3-.17-.59-.36-.89-.52-2.34-1.31-4.65-2.68-7-3.91-1.91-1-3.89-1.8-5.86-2.67a5.77,5.77,0,0,0-1.23-.35c-.39-.09-.78-.13-1.17-.19a31.75,31.75,0,0,1,9,3.95C58.07,15,60,15.91,61.8,16.91,62.32,17.19,62.87,17.42,63.4,17.67ZM68.06,88.3a7,7,0,0,0,4.27-4.45Zm63.1,13.4-3.59,4.51C129.88,104.66,131.43,102.73,131.16,101.7Zm-91-49.2C42,53.46,44,54,46,52.77A9.92,9.92,0,0,1,40.13,52.5Zm26.7,46.55c1.29-.26,3.25-1.72,3.29-3Z"/><path d="M126.35,78.11a1.54,1.54,0,0,0,1.89-.61,2.35,2.35,0,0,1-2.06,2.17c-.5.06-.7.22-.67.75s-.09,1.1-.1,1.65a1.2,1.2,0,0,0,.14.65,1.84,1.84,0,0,1,.09,2.25,21.67,21.67,0,0,1-3.35-1.24,2.43,2.43,0,0,1-1.24-1.14,2.43,2.43,0,0,0-1.63-1.06c-1.21-.24-2.47-.21-3.7-.34a17.34,17.34,0,0,1-1.87-.41v-.3a3.61,3.61,0,0,1,.72-.12,8.77,8.77,0,0,0,4-.93c1.43-.7,2.85-1.44,4.3-2.1a6.33,6.33,0,0,1,2-.53C125.84,76.73,126.21,77.11,126.35,78.11Zm-2.81,4.54-.25-2-3.74.19v.22Zm.67-2.49a1.19,1.19,0,0,0-.58,1.39,1.82,1.82,0,0,0,.6,1c.06.06.46-.23.81-.41C124,81.74,124.14,81,124.21,80.16Z"/><path d="M74.47,84.7a4.6,4.6,0,0,1-.26-.85,3.6,3.6,0,0,1,.67-2.67c1.2-1.56,2.49-3,4.64-3.25a5.2,5.2,0,0,1,5.59,4.5c.19,1.42-.56,2.69-1.12,4-.06.14-.27.2-.55.23l.86-2.57-.17-.13c-.75.54-1.56,1-2.25,1.62A4.22,4.22,0,0,0,81,89.91a4.33,4.33,0,0,0,1,1c.12.1.26.17.42.28-.82.48-1.38.37-1.7-.32-1-2.27-.74-5.15,1.78-6.58a10.5,10.5,0,0,0,.9-.57c1.07-.7,1.16-1,.81-2.2-.59-2.1-3.58-4.13-6.21-2.49A12.61,12.61,0,0,0,75.7,81a3.48,3.48,0,0,0-.93,3,3.77,3.77,0,0,1,0,.67Z"/><path d="M88.42,124.52a2.63,2.63,0,0,1,.09.55c-.23,3.54-.41,7.08-.72,10.61-.22,2.52-.77,5-.93,7.53a20,20,0,0,0,1.9,9.3,3.72,3.72,0,0,1,.17.75l-.26.09a6.25,6.25,0,0,1-.46-.79A22.38,22.38,0,0,1,86.74,139,80.72,80.72,0,0,0,88,125.42a7,7,0,0,1,.1-.91Z"/><path d="M127.47,92.1c-.2.71-.45,1.42-.61,2.14a3.23,3.23,0,0,0,0,1.2c.24,1.53,1.15,1.91,2.4,1a17.28,17.28,0,0,0,1.34-1.23,2.56,2.56,0,0,1,2.12-.81c.29,0,.54.35.81.53-.25.28-.46.68-.77.81a1.43,1.43,0,0,1-1-.13c-.47-.23-.7,0-1.05.25a10,10,0,0,1-2.15,1.46,1.45,1.45,0,0,1-2-1,5,5,0,0,1,.4-4.1c.07-.14.27-.21.41-.32Z"/><path d="M96.36,113.34a2.16,2.16,0,0,1-.58,0c-1.41-.55-2.83-1.1-4.22-1.69a3.67,3.67,0,0,1-2.27-3.1c-.21-1.58-.27-3.17-.37-4.76a2,2,0,0,1,.14-.57h.25c0,.28.08.55.11.83.14,1.55.25,3.12.45,4.67a2.88,2.88,0,0,0,1.81,2.37c1.34.58,2.71,1.11,4.06,1.67a7,7,0,0,1,.72.37Z"/><path d="M84.35,87.86a2,2,0,0,1,.44-.5,2.08,2.08,0,0,1,2.92,1,7.41,7.41,0,0,1,.47,1.75c.12.68.29,1.28,1.09,1.46.15,0,.26.25.47.47-1.09.07-1.6-.23-1.87-1a7.54,7.54,0,0,1-.28-1.25c-.25-1.87-1.21-2.44-3-1.78Z"/><path d="M118.8,78.2c.06-.14.08-.33.18-.41,1.12-.81,2.22-1.68,3.4-2.39a2.12,2.12,0,0,1,2.67.17,3.59,3.59,0,0,1,.45.76c-.31,0-.44,0-.49-.09-.87-1-1.69-.84-2.85-.12-.84.51-1.59,1.16-2.38,1.74-.26.19-.53.34-.8.51Z"/><path d="M82.94,93.94c-.35.09-.52.2-.66.17a6.15,6.15,0,0,1-4.45-3.3,1.47,1.47,0,0,1,0-.59c.15.1.39.16.45.3a5.7,5.7,0,0,0,4,3A3.61,3.61,0,0,1,82.94,93.94Z"/><path d="M89.44,96c-.61.38-1.06.68-1.53.93a8.74,8.74,0,0,1-1.3.55c-.1,0-.28-.12-.42-.19a2.5,2.5,0,0,1,.34-.31c.58-.34,1.15-.68,1.75-1C88.65,95.8,89.08,95.54,89.44,96Z"/><rect x="139.65" y="76.14" width="0.76" height="39.2" transform="translate(-29.11 82.84) rotate(-30)"/><rect x="129" y="92.4" width="0.76" height="39.2" transform="translate(61.07 -44.9) rotate(25.59)"/></svg>