<svg id="Layer_1" data-name="Layer 1" xmlns="http://www.w3.org/2000/svg" viewBox="0 0 179.19 168.37"><title>Untitled-1</title><path d="M-5.51,220.66c-.22-7.36,2.65-13.54,7.27-19a18.67,18.67,0,0,0,4.45-8.35c.45-2.3,2.12-3.77,4-5a34.86,34.86,0,0,1,12-4.47c1.78-.35,3.62-.44,5.43-.69a1.69,1.69,0,0,0,1-.48Q38,171.12,47.39,159.57a29.08,29.08,0,0,0,5.37-10.46c1.05-3.68,2.05-7.38,3.05-11.08a5.28,5.28,0,0,0,.12-1.08,56.89,56.89,0,0,1-6,1.36,11.87,11.87,0,0,1-10.11-3.52,43.84,43.84,0,0,1-11.77-20.21c-1-3.7-2.11-7.37-2.93-11.11a32.48,32.48,0,0,1,.51-14.93c1.27-5.18,2.76-10.31,4.06-15.48.56-2.21.87-4.48,1.31-6.85-5.27,2.46-10.41,1.29-14.39-3.1-1.23-1.36-2.46-2.71-3.72-4a35.33,35.33,0,0,1-6.14-9.65,27.91,27.91,0,0,1-2.64-9.24,9.89,9.89,0,0,0-1-3.76,7,7,0,0,1-.29-6.69c.76-1.65,1.76-3.2,2.54-4.85s1.39-3.28,2-4.93,1.25-3.35,1.87-5a7.93,7.93,0,0,0,.31-1,4.75,4.75,0,0,1,1.91-3.14,47,47,0,0,1,5.88-3.69,38,38,0,0,1,13-3.53c1.21-.1,2.38-.5,3.59-.62,5.33-.54,9.91,1.46,13.93,4.64a113.38,113.38,0,0,1,8.47,7.8c1.69,1.64,3.24,3.44,4.79,5.23A11,11,0,0,1,63.79,29a13.44,13.44,0,0,0,.33,3.51c.36,1.84,1.09,2.48,3,2.33a59.33,59.33,0,0,0,7.88-1,55.67,55.67,0,0,1,14.17-1.69c4.86.19,9.75.49,14.57,1.14,4.32.58,8.54,1.82,12.84,2.54a33.71,33.71,0,0,1,21.27,12.52,23.4,23.4,0,0,1,4.69,11.19,3.8,3.8,0,0,1,0,1.61c-.41,1.4.25,2.42.9,3.57a45.07,45.07,0,0,1,5.36,15.67c.57,3.72.76,7.49,1.11,11.24a7.25,7.25,0,0,1-1.06,4.3,9.79,9.79,0,0,0-1.07,3.53,16.06,16.06,0,0,0,2.72,11c1.63,2.52,3.37,5,5.06,7.47.22.33.48.64.7,1,2.48,3.63,1.23,6.86-2.43,9-.87.5-1.84.8-2.73,1.26a3.27,3.27,0,0,0-.65,5.19,1.94,1.94,0,0,1,.17,2.73c-1,1.36-2.26,2.57-3.42,3.84a6.92,6.92,0,0,1-.74.66,6.27,6.27,0,0,1,.9,4.85,3.34,3.34,0,0,1-2.14,2.36c-1.35.55-2.65,1.2-4,1.84a8.71,8.71,0,0,1,.72,7.16,14.1,14.1,0,0,1-2.17,3.65c-1,1.29-2.59,1.42-4.12,1.49-6.38.29-12.46-1.15-18.41-3.27-2.29-.82-4.52-1.82-6.8-2.67-4.08-1.5-7.7-.58-10.4,2.81a54.59,54.59,0,0,0-4,5.89,6.44,6.44,0,0,0-.53,2.49c-.21,1.74-.35,3.49-.56,5.24a.89.89,0,0,0,.8,1.14,30.34,30.34,0,0,0,5.29.85c9.88-.09,18,3.93,25.31,10.25a15.24,15.24,0,0,1,5,9.87c1.09,8.17,2,16.37,3,24.55,0,.22,0,.43,0,.65h-.65c-.08-.67-.18-1.34-.26-2q-1.38-11.08-2.74-22.19c-.54-4.4-2.15-8.27-5.76-11a63.55,63.55,0,0,0-7.17-4.91,30.78,30.78,0,0,0-12.1-4.17c-2.47-.23-4.94-.29-7.41-.53a32,32,0,0,1-3.37-.71,5.17,5.17,0,0,0,1.27,5.29c1.32,1.38,2.61,2.77,3.92,4.15a13.63,13.63,0,0,1,3.81,5.89,60.17,60.17,0,0,0,4,10.4c1.55,3.32,2.91,6.7,3,10.45.1,5-2.18,8-6.78,9.06-.55.12-1.11.21-1.67.32h-2.37a3.8,3.8,0,0,0-.61-.18,31.92,31.92,0,0,1-15.76-5.8,142.71,142.71,0,0,1-10.93-9.21c-4.29-3.83-8.48-7.77-13.38-10.81-6.32-3.91-13.24-6.41-20.24-8.8-5.31-1.82-10.61-2.6-16.16-1.43a37.84,37.84,0,0,0-12.36,4.44,8,8,0,0,0-4,5.44,14.39,14.39,0,0,1-3.08,6.2c-1.36,1.75-2.73,3.51-4,5.34a23.19,23.19,0,0,0-4.23,14.81Zm97.82-89.82c-.32,2.71-1.84,3.87-4.33,3.57a10.48,10.48,0,0,1-5-2.12,62.84,62.84,0,0,1-10.37-10.44A19.13,19.13,0,0,1,68.54,115c-.2-.71-.39-1.42-.59-2.13a26.73,26.73,0,0,1-1.59,3.79,8.72,8.72,0,0,0-.89,6.42A7.63,7.63,0,0,1,64,129.24a24.56,24.56,0,0,1-6.61,6.56,1.28,1.28,0,0,0-.58.8c-.4,4.3-2,8.28-3.17,12.38a33,33,0,0,1-6.31,12c-5.77,7-11.48,14.09-17.2,21.14-.23.28-.44.58-.7.93a15.85,15.85,0,0,1,2.65.23c3.49.92,7,1.77,10.43,2.92,7.46,2.51,14.8,5.41,21,10.37,5,4,9.64,8.27,14.39,12.48,3.64,3.22,7.39,6.25,12,8.11,4.06,1.65,8.19,2.87,12.63,2.63a8,8,0,0,0,5.41-2c2.07-2,2.48-4.54,2.29-7.24a24.52,24.52,0,0,0-2.14-7.73c-1.5-3.64-3-7.27-4.37-11a15.38,15.38,0,0,0-2.73-5.19c-1.33-1.5-2.76-2.91-4.12-4.39-.73-.8-1.4-1.64-2.06-2.42-.57,4.26-1.28,8.44-1.65,12.64a40.42,40.42,0,0,0,0,9c.29,2.08,1.57,4,2.4,6a6.37,6.37,0,0,1,.26,1l-.31.11c-.13-.11-.31-.2-.38-.34A53,53,0,0,1,92.62,203c-1.14-3.31-.73-6.74-.34-10.13.33-2.92.87-5.82,1.14-8.75.44-4.61.73-9.23,1.08-13.84.06-.83.15-1.64.23-2.47a8.93,8.93,0,0,0-1.35,1.75c-.78,1.25-.77,1.25-1.44,1.1a1.64,1.64,0,0,1,.14-.39c2.47-3.74,4.81-7.58,7.48-11.17a9.05,9.05,0,0,1,10.81-3c2.42.89,4.8,1.92,7.22,2.78,6.06,2.15,12.24,3.58,18.75,3.11a4.5,4.5,0,0,0,3.13-1.43,8.32,8.32,0,0,0,1.31-9,1.21,1.21,0,0,1,.56-1.85c.71-.4,1.45-.76,2.26-1.18-1.41-1-1.85-3.12-4.12-3.3a6.54,6.54,0,0,1,1.53-1.68,26.72,26.72,0,0,0,7.65-7.77,2.59,2.59,0,0,0,.36-2.38c-.81-2.52.11-4.36,2.5-5.4a12.85,12.85,0,0,0,2.43-1.14c3.29-2.31,3.58-4.62,1.8-7.4-.27-.42-.6-.8-.87-1.22-2-3-4.15-6-5.91-9.1a15.57,15.57,0,0,1-1.2-13.2c-.35-.21-.7-.38-1-.6-1.39-.95-2.72-2-4.18-2.84a7.05,7.05,0,0,0-6-.67A20.09,20.09,0,0,0,128.44,97a2.7,2.7,0,0,1-.77.41l-.25-.27a9.27,9.27,0,0,1,1.29-1.91c1.88-1.71,3.81-3.36,5.78-5a8.61,8.61,0,0,1,8.89-1.51c2,.7,3.82,1.63,5.88,2.52-.43-3.79-.68-7.67-1.33-11.48a44,44,0,0,0-5.4-15.1,1.54,1.54,0,0,0-2.61-.4c-1,.85-1.94,1.72-2.86,2.63A3.85,3.85,0,0,0,136,68.39a3,3,0,0,1-2,2.22c-5.5,1.76-8.6,5.93-11,10.83-1.48,3-2.71,6.2-4.46,9-2.54,4.15-5.4,8.11-8.24,12.07-4,5.53-12.2,7.54-18.35,4.57-1.12-.54-2.19-1.2-3.36-1.85,0,.19,0,.31,0,.43s-.07.31-.12.49c-.17,0-.29,0-.37-.08a1,1,0,0,1-.27-.32,13.21,13.21,0,0,0-8.92-6.36c-4.36-1-7.87,1-9.58,5.09s-1.11,7.87.75,11.63c2.82,5.67,7.17,10.1,11.9,14.17a20.5,20.5,0,0,0,5,3c2.14,1,3.72.18,4.78-1.89A2.91,2.91,0,0,1,92.31,130.84ZM66.48,42.16l0-.08c.12.28.23.56.37.83a77,77,0,0,0,8.73,13.42C81,62.92,87.16,68.55,94.88,72.26c9.83,4.73,19.7,5.14,29.5-.18,3-1.63,6-3.3,9.63-3.36a4,4,0,0,0-2.23-.35A66.74,66.74,0,0,0,125,70.76a34.47,34.47,0,0,1-17.22,2.81A39.37,39.37,0,0,1,91,67.42c-6.33-3.94-11.4-9.27-16.22-14.84C71.88,49.22,69.24,45.64,66.48,42.16ZM67,37.65l-.3.29a5.45,5.45,0,0,0,.4.58A127.33,127.33,0,0,0,84.73,55.25a64,64,0,0,0,18.78,10.49c3.14,1,6.31,2.08,9.66,1.78s6.46-.81,9.69-1.24a6.07,6.07,0,0,0-1.8-.08c-1.57.09-3.15.29-4.73.25a34.64,34.64,0,0,1-13.2-3.12,98.85,98.85,0,0,1-27-17.85C73.21,42.75,70.06,40.25,67,37.65Zm48.66,55c-.18.14-.38.27-.56.42a23.25,23.25,0,0,1-15.3,5.38,31,31,0,0,1-16-5A90.64,90.64,0,0,1,66.08,78.12a64.78,64.78,0,0,1-11.59-17,43.7,43.7,0,0,1-3.76-13.63c-.93,1-1.18,3.79-.72,5.78A49.27,49.27,0,0,0,56.1,67.65,77.88,77.88,0,0,0,73.68,87.29C76,89.21,78.49,91.05,81,92.83A32.45,32.45,0,0,0,102.32,99C107.72,98.69,111.94,96.24,115.67,92.63Zm3.55-8.31c-1,.68-1.94,1.41-3,2-3.9,2.34-8.11,2.56-12.48,1.75A38.08,38.08,0,0,1,82.23,76.22a53.7,53.7,0,0,1-9-14.34c-2.48-5.4-4.64-11-7-16.42-.48-1.15-1-2.28-1.53-3.42l-.26.11c1.18,3.48,2.31,7,3.54,10.45,2.61,7.38,5.66,14.56,10.18,21C83.17,80.7,89.46,86,98,88.37c5.1,1.4,10.22,1.88,15.34.12A12.94,12.94,0,0,0,119.22,84.32Zm-1.49,2.73a17.92,17.92,0,0,1-11.17,3.32A33.64,33.64,0,0,1,90.22,86c-5.65-3.16-9.87-7.79-13.42-13.1-4.46-6.68-7.4-14.06-10-21.58-.87-2.48-1.66-5-2.49-7.49a1.08,1.08,0,0,0,0,.73c1,3.26,1.87,6.54,2.92,9.77a81.43,81.43,0,0,0,9.71,20.89c3.84,5.62,8.41,10.47,14.68,13.41,5.94,2.78,12.12,4.16,18.69,2.68A13.4,13.4,0,0,0,117.73,87.05Zm-67.58-30a1.23,1.23,0,0,0,0,.43c1.16,3.15,2,6.45,3.56,9.41A70.73,70.73,0,0,0,79.06,94.47c6.42,4.08,13.41,6.47,21.17,5.89,1.25-.09,2.49-.37,3.73-.56-1.18-.08-2.32-.11-3.46-.08A31.35,31.35,0,0,1,81.82,94.3,104.68,104.68,0,0,1,67.87,83.16,68.44,68.44,0,0,1,53.09,63.73C52,61.55,51.13,59.3,50.15,57.05ZM116,72.55c-2-.17-4.21-.19-6.35-.56a48.76,48.76,0,0,1-18.56-7.88C83,58.72,76.42,51.75,70.32,44.26c-1.61-2-3.16-4-4.74-5.94A13.49,13.49,0,0,0,67,41.05,104.46,104.46,0,0,0,84.82,61.82,44.56,44.56,0,0,0,101,71.34,30,30,0,0,0,116,72.55ZM76.7,62.48l-.26.26c2.21,2.61,4.28,5.37,6.67,7.82A42.58,42.58,0,0,0,108,83.27,15.62,15.62,0,0,0,119.24,81a21.1,21.1,0,0,0,5.3-5.36,5.6,5.6,0,0,0-1,.71,20.39,20.39,0,0,1-6.2,4c-4,1.42-8.07,1.11-12.1.25-9.18-2-17-6.59-23.74-13C79.84,66,78.31,64.2,76.7,62.48ZM84,99.77l-.06,0C81.28,98,78.54,96.29,76,94.31c-2-1.57-3.64-3.55-5.55-5.23A78.62,78.62,0,0,1,58.24,75.79C54.36,70.36,51.13,64.58,49.57,58c-.56-2.37-.8-4.82-1.19-7.23a6.58,6.58,0,0,0-.45,2.1,35.56,35.56,0,0,0,4,16A64,64,0,0,0,66.43,87.63c5,4.61,10.29,8.83,16.54,11.69C83.31,99.48,83.65,99.62,84,99.77Zm27.1-6.12L111,93.3a29.75,29.75,0,0,1-13.11.18A34.49,34.49,0,0,1,86.73,89a45.56,45.56,0,0,1-12.81-10.4c-2.06-2.52-3.8-5.3-5.77-7.9a67.09,67.09,0,0,1-8.41-14c-1.59-3.73-3.19-7.47-3.47-11.57-.12-1.74,0-3.49,0-5.23a3.29,3.29,0,0,0-1.15,1.57,9.83,9.83,0,0,0,.32,5.83,96.67,96.67,0,0,0,11,23c4.93,7.47,10.71,14.13,18.41,18.9,6.36,3.94,13.19,6.29,20.81,5.53C107.44,94.56,109.26,94,111.09,93.65ZM61.79,38.47a7.63,7.63,0,0,0,0,.84c.09.75.17,1.5.31,2.24a108,108,0,0,0,6.54,22C71.77,71,75.72,78,81.58,83.67c7.58,7.38,16.55,10.74,27.13,9.36a14.51,14.51,0,0,0,7.51-3.35,1.25,1.25,0,0,0-.55.2,17.21,17.21,0,0,1-8.73,2.69,31.9,31.9,0,0,1-20-5.73C81.37,83.05,77.37,77.8,74,72c-4.33-7.42-7.09-15.47-9.46-23.68C63.64,45.17,62.77,42,61.79,38.47Zm69.13,21.7.14-.33c-1.22-.58-2.41-1.25-3.67-1.74-6.42-2.47-12.82-5-19.28-7.31-10.5-3.81-21-7.51-31.56-11.25-2-.71-4-1.38-6-2.06l-.15.34c2.36,1.17,4.66,2.51,7.11,3.45,3.71,1.42,7.56,2.46,11.29,3.81,9.38,3.42,18.72,7,28.1,10.36C121.55,57.12,126.25,58.6,130.92,60.17ZM32.49,73.23l-.42,0c0,.45-.09.92-.16,1.37C30.82,81.28,29.66,88,28.68,94.73a31.09,31.09,0,0,0,.44,12.3A45.67,45.67,0,0,0,39.3,125.64a19.63,19.63,0,0,0,9.08,5.91A12.72,12.72,0,0,0,60,129.77c.14-.1.29-.2.43-.32a1,1,0,0,0,.17-.21,22.44,22.44,0,0,1-4.16,1.7,15.13,15.13,0,0,1-10.79-1.81,24.7,24.7,0,0,1-6.44-5.33c-6.17-7.22-9.55-15.47-9.36-25.1a105.09,105.09,0,0,1,1.77-19.47C32,77.26,32.19,75.23,32.49,73.23Zm88.87-18.46c-16.32-8.11-33-15.33-51.43-18.55Zm.29,9.09c-2.3-.59-5.29-1.29-8.24-2.12C103.19,58.88,93.52,54.81,85,48.37a131.42,131.42,0,0,0-13.21-8.45c-.23-.13-.47-.22-.71-.33,1.59,1.44,3.26,2.74,5,4,8.11,6.06,16.45,11.75,25.74,15.9C108.32,62.42,115,64.56,121.65,63.86Zm-69-18.78-.3,0a15.51,15.51,0,0,0,.06,3.86,59.18,59.18,0,0,0,2.67,8c3.71,8.74,9.44,16.12,16.07,22.83,4.75,4.8,9.76,9.33,15.7,12.65,6.16,3.44,12.71,5,19.77,3.63A13.51,13.51,0,0,0,112,93.94c-.07,0-.15,0-.2,0C107.08,96,102.16,96,97.18,95a38,38,0,0,1-17.4-8.49c-3.29-2.81-6.32-6-9.33-9.07C65,71.77,60,65.64,56.53,58.45,54.47,54.21,52.51,50,52.64,45.08Zm-5.79,7.24c-.14.69-.32,1.38-.4,2.08a25.62,25.62,0,0,0,2.28,13c5.59,12.85,14.9,22.28,27,29.07a4.3,4.3,0,0,0,.54.2.43.43,0,0,0-.2-.32A82.14,82.14,0,0,1,60,82.13C52.59,73.55,47.29,64,46.85,52.32Zm88.91,12.15A11.39,11.39,0,0,0,130,60.54c-5.17-1.7-10.36-3.35-15.48-5.18-10-3.57-19.91-7.25-29.87-10.88-1.09-.39-2.22-.7-3.33-1a2,2,0,0,0,.89.66c8.36,3.41,16.67,6.91,25.08,10.19a110.87,110.87,0,0,0,17.64,5.76C128.77,60.86,132.59,61.89,135.76,64.47ZM70,50.36c0-.17,0,0,0,.08C76.45,62.58,86,71.13,99,75.71a32.86,32.86,0,0,0,15.89,1.7c5.67-.84,10.47-3.47,15-7a4.87,4.87,0,0,0-.7.2c-1.38.66-2.8,1.28-4.14,2-9,5-18.3,5.29-27.77,1.56a50.24,50.24,0,0,1-18.8-13.5C75.43,57.33,72.73,53.69,70,50.36Zm3.62,48.08c-6.19-.63-11.16-3.35-15.55-7.23a53.39,53.39,0,0,1-11-13.73A47.21,47.21,0,0,1,42.2,65.32a3,3,0,0,0,.06,1,54,54,0,0,0,6.65,17.27C54,92,61,97.66,71.06,99.15A3.48,3.48,0,0,0,73.64,98.44Zm2.63-34.68s0,.08,0,.16c2.07,2.88,4,5.86,6.25,8.61,4.16,5.11,9.79,8.21,15.73,10.77,3.8,1.64,7.7,3,11.93,2.84,3.07-.08,7.09-1.88,8.83-4-1.11.44-2.27,1-3.49,1.36-3.76,1.18-7.52.69-11.25-.19a43.19,43.19,0,0,1-22.07-12.6C80.13,68.49,78.23,66.06,76.27,63.76Zm-45.74,15-.25,0c-1,4.46-2.09,8.91-3,13.4A37.3,37.3,0,0,0,27,105.57,41.05,41.05,0,0,0,30.7,116.2c2.21,4.65,4.73,9.1,8.56,12.67,3.48,3.26,8.59,4.94,12.79,4.13a20.25,20.25,0,0,1-14.4-8.13,74.21,74.21,0,0,1-5.73-8.7A30.3,30.3,0,0,1,27.71,98c.41-4.56,1.17-9.09,1.82-13.62C29.81,82.49,30.2,80.61,30.53,78.72Zm2,10.86a58.35,58.35,0,0,0,.87,17.63c1.54,6.94,4.53,13.07,10.36,17.48,3.31,2.5,6.86,4.45,11.14,4.6,3.6.13,6.82-1.88,7.83-4.85-3.76,4.1-8.28,4.31-13.11,2.51a19.74,19.74,0,0,1-9-7.23c-4.11-5.66-6-12.18-7-19C33,96.91,32.81,93,32.49,89.58ZM60,108.72a36.19,36.19,0,0,1-4.3.61c-4.86.13-8.49-2.29-11.38-5.93-3.76-4.73-5.85-10.32-7.74-16-.73-2.19-1.15-4.49-1.72-6.74a46.73,46.73,0,0,0,1.46,10.39c1.53,5.47,3.49,10.74,7.42,15C48.5,111.21,53.67,112.16,60,108.72Zm70.78-51.84.16-.21c-1.55-1-3.07-2-4.67-2.84-13.92-7.65-28.08-14.76-43.63-18.59a20,20,0,0,0-7.13-.59C95.23,39,113.06,47.8,130.77,56.88ZM130,67.26l-.1-.31c-2,.61-4,1.09-5.89,1.84a24.92,24.92,0,0,1-9.67,1.76c-6.64-.14-12.7-2.31-18.44-5.53-6.83-3.84-12.4-9.27-18.21-14.39-1.64-1.45-3.14-3-4.71-4.56l-.23.23c2.94,3.05,5.79,6.17,8.82,9.12A63.14,63.14,0,0,0,99,67.71a41.18,41.18,0,0,0,14.52,4C119.56,72.13,124.7,69.38,130,67.26ZM33.94,82.68c0,1.64,0,3.21,0,4.79a48.44,48.44,0,0,0,4.1,18.44c2,4.46,4.6,8.46,9.05,10.88,4.61,2.51,9.38,3.24,14.34,1a8,8,0,0,0,4.13-3.79c-3.65,3.54-8,4.47-12.9,3.65-5.82-1-9.7-4.55-12.24-9.67-2.9-5.86-4.27-12.2-5.4-18.59C34.64,87.19,34.3,84.93,33.94,82.68ZM8.73,19.07c4.44-2.06,5.75-2.35,10.89-2.35,7.5,0,14.83,1.37,22.16,2.7,3.74.68,7.45,1.52,11.21,2,3.14.39,6.16.81,8.47,3.31,0-.15.06-.24,0-.28a6.57,6.57,0,0,0-.48-.57,11.89,11.89,0,0,0-6.88-3.24c-7.43-1.36-14.86-2.73-22.3-4a63.78,63.78,0,0,0-16.37-1.12,21.28,21.28,0,0,0-5.05,1.28A2.5,2.5,0,0,0,8.73,19.07ZM56.88,130a16.15,16.15,0,0,1-9.34-2c-7.75-4-12.26-10.49-14.44-18.76-2.12-8-1.74-16.14-1-24.28.22-2.41.47-4.82.7-7.23A6.06,6.06,0,0,0,32.43,79c-1.36,5.83-1.65,11.78-1.91,17.73a36.43,36.43,0,0,0,9,26.32c3,3.51,6.56,6.33,11.28,7.2A11.42,11.42,0,0,0,56.88,130Zm59.21-44.66a5.31,5.31,0,0,0-.55.23,14,14,0,0,1-8.71,1.06c-6.49-1.05-12.27-3.87-17.73-7.37C83.48,75.67,79.47,70.54,76,64.92c-.4-.66-.79-1.33-1.19-2a27.61,27.61,0,0,0,2,4.37c6.65,11.86,16.48,19,30.2,20.45A13.38,13.38,0,0,0,116.09,85.36ZM52.33,53l.13-.06c0,.24.09.48.15.72A53.35,53.35,0,0,0,62,72,97.43,97.43,0,0,0,81,90.57a35.62,35.62,0,0,0,11.91,6.06,25.41,25.41,0,0,0,11.44.68c-1.3,0-2.55.06-3.8,0A31.34,31.34,0,0,1,85,92.19,87.42,87.42,0,0,1,57.88,64C55.77,60.5,54.17,56.69,52.33,53ZM71.47,35.3l0,.36c.23.08.46.16.69.22,4.38,1.07,8.8,2,13.13,3.24,13.48,3.87,26.11,9.8,38.63,16,2.64,1.31,5.39,2.39,8.09,3.58a4.19,4.19,0,0,0-1.37-1.06L124,54.33C114.71,49.64,105.42,45,95.6,41.57c-6.28-2.21-12.43-4.82-19.09-5.75C74.84,35.58,73.15,35.47,71.47,35.3Zm2.87,62.44c-.29-.17-.4-.26-.53-.32A65.4,65.4,0,0,1,59,88.77,42.55,42.55,0,0,1,43.36,63.52a42.55,42.55,0,0,1-.51-5.38,15.45,15.45,0,0,0,.28,7.36c2.5,10,7.88,18.16,15.37,25A25.8,25.8,0,0,0,74.34,97.74ZM5.8,39.64a9.85,9.85,0,0,0,4.66,4.06c3.75,1.73,7.67,1.66,11.6,1,8.28-1.49,15.59-5.52,23.15-8.92-1,.25-2,.61-2.91.94-7.42,2.61-14.77,5.5-22.71,6.22C14.65,43.34,9.9,42.93,5.8,39.64ZM134.33,64.3l.08-.15c-1.94-.79-3.83-1.74-5.82-2.34-3.22-1-6.56-1.54-9.74-2.6q-15.94-5.3-31.4-11.92L85,46.2a1.24,1.24,0,0,0,.61.59,202,202,0,0,0,35.85,14.57C125.64,62.61,130,63.33,134.33,64.3ZM51.5,36.62l-.26-.31c-.46.28-.91.55-1.36.84a90.91,90.91,0,0,1-22.4,10.5,38.69,38.69,0,0,1-11,2,15.8,15.8,0,0,1-7.09-1.36,8.5,8.5,0,0,0,4.17,2.32c3.91,1,7.77.45,11.59-.54a74.57,74.57,0,0,0,20.29-9.17C47.56,39.56,49.49,38,51.5,36.62Zm9.52-6,.24-.27a23.1,23.1,0,0,0-2.88-2.08,16.17,16.17,0,0,0-8.06-1.5c-3.84.1-7.66.68-11.49.72-5.42.06-10.83-.19-16.25-.28A45.65,45.65,0,0,0,9.35,28.38a12.4,12.4,0,0,0-4.62,2.2c1.5-.46,2.93-1,4.42-1.34,4.84-1.07,9.77-1,14.69-.86,3.33.08,6.67.54,10,.41,4.62-.19,9.22-.84,13.83-1.17S57,27.72,61,30.58ZM83.67,68.23a47,47,0,0,0,15.22,9.69,32.78,32.78,0,0,0,13.73,2.59,14.67,14.67,0,0,0,10.28-4.73c-.31.12-.54.2-.76.3a29.49,29.49,0,0,1-16.74,2,45.63,45.63,0,0,1-19.78-8.42Zm42.54-3v-.42c-1.72-.08-3.44-.22-5.15-.22A37.87,37.87,0,0,1,108.66,63c-9.2-3.07-17.5-7.85-25.46-13.28-1.42-1-2.83-2-4.25-3a.79.79,0,0,0,.36.57,98.57,98.57,0,0,0,20.15,13.5c4.49,2.37,9.19,4.34,14.31,4.64C117.9,65.66,122.06,65.34,126.21,65.26Zm-84.3-8.55c-.17.34-.37.67-.53,1a14.28,14.28,0,0,0-.9,7.82,50.39,50.39,0,0,0,5.85,18.09c3.64,6.54,8.68,11.54,16,14,.2.06.4.09.6.13a34.38,34.38,0,0,1-8.33-5.88c-5.54-5.34-8.9-12-11.34-19.15C41.43,67.5,40.27,62.23,41.91,56.71ZM60.73,25.36l.19-.33a28.79,28.79,0,0,0-3-1.84A14.63,14.63,0,0,0,51,22.13a75.59,75.59,0,0,1-15.53-1.22,76.84,76.84,0,0,0-16.58-1.37A17.9,17.9,0,0,0,9.59,22.2a27.26,27.26,0,0,0-2.66,2.27l.19.21A26.81,26.81,0,0,1,19.42,21c6.59-.36,13.1.48,19.63,1.18,3.41.37,6.86.53,10.29.61C53.32,22.91,57.32,22.71,60.73,25.36ZM5.14,28.29a17.06,17.06,0,0,1,8.17-3.89,43.43,43.43,0,0,1,5.34-.49c4.84-.14,9.68-.19,14.52-.3,1,0,2-.13,3-.2l3-.24A3.88,3.88,0,0,0,38,22.9c-6.59-.86-13.18-1.62-19.83-1a22.93,22.93,0,0,0-9,2.5A9.24,9.24,0,0,0,5.14,28.29Zm46.94,4c-.26,0-.53.07-.78.14-1.59.42-3.19.83-4.76,1.29C41.7,35.09,36.88,36.6,32,38a72.52,72.52,0,0,1-16.28,2.84,25,25,0,0,1-8.32-.95A18.37,18.37,0,0,0,11,41.51c4.54,1.39,9.09.84,13.61-.12C34.1,39.36,43,35.41,52.08,32.24ZM55,37.07l-.27-.26c-.78.89-1.58,1.76-2.35,2.66A55.92,55.92,0,0,1,33.8,53.57c-4.65,2.25-9.44,4-14.71,3.92-1.56,0-3.11-.32-4.61-.49.15.08.36.21.58.31a17.51,17.51,0,0,0,9.59,1.14,32.85,32.85,0,0,0,14.19-5.83A74.31,74.31,0,0,0,55,37.07ZM8.45,48.68a9.46,9.46,0,0,0,4.17,3.44c3.91,1.72,7.93,1.51,11.91.46a67.44,67.44,0,0,0,26.62-14.4c.46-.39.88-.83,1.32-1.25a1.47,1.47,0,0,0-.8.35c-2.61,1.82-5.13,3.81-7.87,5.43-7,4.11-14.24,7.57-22.34,8.83C16.79,52.27,12.29,52,8.45,48.68ZM6.33,43.56a8.11,8.11,0,0,0,6,4.84,22.78,22.78,0,0,0,10.45-.31A77.73,77.73,0,0,0,43,40.32c3.19-1.71,6.25-3.65,9.37-5.49l-.13-.25c-1.4.61-2.81,1.2-4.2,1.84-5.72,2.65-11.37,5.44-17.16,7.94C26,46.45,20.92,48,15.53,47.78A11.87,11.87,0,0,1,6.33,43.56Zm27.4,51.87c0,.21,0,.42,0,.63.06.61.13,1.22.19,1.82A52.24,52.24,0,0,0,37.62,113c2.12,5,5.14,9.36,10,12.19,3.34,2,6.9,2.83,10.7,1.52A8.1,8.1,0,0,0,63,122.2a.91.91,0,0,0-.46.23,12.37,12.37,0,0,1-15.48,1c-4-2.65-6.38-6.54-8.36-10.72A62.64,62.64,0,0,1,33.73,95.43Zm26.89,5c0-.12,0-.17-.07-.17a1.91,1.91,0,0,0-.41-.11,25.36,25.36,0,0,1-12.75-6,36.82,36.82,0,0,1-8.64-12.62c-1.44-3.27-2.56-6.69-3.83-10,.12.11.1.29.13.46a48.7,48.7,0,0,0,4.83,15.3c2.55,4.82,5.95,8.86,11,11.31A21.28,21.28,0,0,0,60.62,100.44ZM61,39.93a22.58,22.58,0,0,0,.51,9.15A95.54,95.54,0,0,0,69.05,69a46.12,46.12,0,0,0,8.49,12.1c.48.49,1,.93,1.51,1.38C68.73,70.09,64,55.38,61,39.93Zm25.12,8.26c7.48,6.52,32.75,16.14,39.83,15a111.06,111.06,0,0,1-20.4-6.57C98.84,53.92,92.31,50.91,86.07,48.19ZM45.45,55a23.39,23.39,0,0,0,1.33,13c5.36,12.58,14.37,21.78,26.39,28.11a2.55,2.55,0,0,0,.58.1A63,63,0,0,1,57.35,82.5C50.61,74.55,45.51,65.86,45.45,55Zm-5.22,3.55a2.13,2.13,0,0,0-.34.22c-.09.11-.18.22-.26.34-2,3-2.16,6.26-1.46,9.6A47.75,47.75,0,0,0,49.1,90.09a38.27,38.27,0,0,0,3.81,3.48c.15-.22.15-.26.14-.27l-1.09-1c-5.15-4.93-8.23-11.06-10.25-17.77C40.15,69.33,38.73,64.13,40.23,58.53ZM3.4,33.42c1.54-.62,3-1.35,4.56-1.8,4.06-1.18,8.25-1,12.4-.78a56.05,56.05,0,0,0,15.3-.77l2.75-.58a60.18,60.18,0,0,1-7.1.07c-6.34-.5-12.68-.91-19-.08A38.59,38.59,0,0,0,6.07,31,3.83,3.83,0,0,0,3.4,33.42Zm4.41-11c1.11-.64,2.06-1.28,3.08-1.77a23,23,0,0,1,9.75-1.9c6.28-.11,12.41,1.15,18.59,2,2.63.36,5.26.61,7.9.91l0-.29a7.47,7.47,0,0,0-.89-.26c-5.69-1-11.36-2-17.06-2.9a53.37,53.37,0,0,0-13.42-.54,13.09,13.09,0,0,0-5.74,1.66A4.47,4.47,0,0,0,7.81,22.38Zm46.12-2.53,0-.16c-2.65-1-5.31-1.87-7.94-2.88C38.46,13.91,30.89,11,22.61,11a22.58,22.58,0,0,0-8.67,1.18,28.44,28.44,0,0,0-3.07,1.66c1.75-.33,3.37-1,5-1.17a50.71,50.71,0,0,1,16.57.94A139.08,139.08,0,0,1,49.8,18.92,35.79,35.79,0,0,0,53.93,19.85ZM37.36,61.75c-.14.32-.3.63-.43,1a13.55,13.55,0,0,0-.24,8.67,40.53,40.53,0,0,0,18.55,25A23.65,23.65,0,0,0,66.7,100c-.85-.28-1.71-.47-2.57-.7-6.92-1.87-13-5-17.46-10.89A54.24,54.24,0,0,1,39.23,75.1C37.58,70.82,36.53,66.43,37.36,61.75ZM5,34.73l0,.35c4.23.13,8.46.3,12.69.37a21.71,21.71,0,0,0,4.49-.33c3.83-.76,7.65-1.56,11.42-2.55,7.73-2,15.47-3.67,23.55-2.44A30.66,30.66,0,0,0,52,29,40.25,40.25,0,0,0,36.2,31c-5.06,1.6-10.15,3.09-15.51,3.2-3.05.06-6.1,0-9.15,0C9.35,34.34,7.15,34.58,5,34.73ZM88.62,33.4c17.51,3.36,32.43,12,46.22,22.88a72.75,72.75,0,0,0-6.67-5.77c-8.53-6.32-17.59-11.7-27.72-15.09A38.61,38.61,0,0,0,88.62,33.4ZM7.07,28.31c.89-.27,1.76-.58,2.65-.8,5.51-1.37,11.11-1.12,16.71-1,4.3.1,8.61.2,12.91.11,4.08-.08,8.17-.61,12.25-.58s8.11.73,10.69,4.67a3.3,3.3,0,0,0-1.91-3.23,13.93,13.93,0,0,0-2.94-1.28c-5.51-1.59-11.16-1.21-16.78-1-3.91.18-7.8.57-11.71.7-4.84.17-9.69.09-14.53.28A15.46,15.46,0,0,0,7.07,28.31ZM89.87,59.9a2.52,2.52,0,0,0,.33.46A50.07,50.07,0,0,0,104.42,68c4.31,1.41,8.74,2.32,13.23,1.5,3.52-.63,6.93-1.8,10.39-2.73a2.23,2.23,0,0,0-1.34-.24c-2.92.38-5.82.86-8.75,1.14a38.88,38.88,0,0,1-8.12.34c-5.69-.68-10.88-3-15.86-5.75C92.67,61.56,91.4,60.79,89.87,59.9ZM10.4,15.73a21.89,21.89,0,0,1,7.73-1.15c7.46,0,14.74,1.43,22,2.71,1.43.24,2.85.51,4.28.76,0-.19-.09-.24-.15-.26L42.07,17C33.92,14.3,25.64,12.52,17,13.28,14.56,13.49,12.24,14,10.4,15.73Zm52.29,85.5c-.61,0-1.22,0-1.83,0A21.35,21.35,0,0,1,43.18,93.5a35.74,35.74,0,0,1-6.21-11c-.12-.34-.25-.67-.37-1s-.22-.63-.34-.94a34.51,34.51,0,0,0,5,12.93,17.84,17.84,0,0,0,10.87,7.89A24,24,0,0,0,62.69,101.23ZM97.16,33.61a84,84,0,0,1,20.42,9A97.65,97.65,0,0,1,135.65,55.7a3.36,3.36,0,0,0-.65-1,56.4,56.4,0,0,0-9-7.87c-6.58-4.85-13.4-9.24-21.28-11.7C102.28,34.38,99.83,33.41,97.16,33.61ZM134,56.89c-.34-.29-.67-.6-1-.87-2.49-1.88-4.93-3.84-7.5-5.61-10.58-7.31-21.92-13-34.61-15.66-2.74-.58-5.55-.87-8.33-1.3l-.07.35C91.68,36,101,38,109.61,42A144,144,0,0,1,134,56.89ZM29.49,115.71c1,3.41,4.63,9.75,7.55,13.09a23,23,0,0,0,6.9,5.57c5.08,2.6,11,1.6,15.77-2.25a25,25,0,0,1-8.53,1.76A16.48,16.48,0,0,1,40.71,131a26.09,26.09,0,0,1-7-7.69C32.22,120.83,30.88,118.21,29.49,115.71Zm1.26-83.86c-4.74-.14-9.82-.36-14.91-.4a24.34,24.34,0,0,0-8.79,1.22c-1,.35-1.86.85-2.59,1.18,4-.09,8.18-.31,12.33-.26A47.15,47.15,0,0,0,30.75,31.85Zm61.78,5.2C97.76,39.32,104,41.86,110,44.69s12,5.91,17.43,8.64C116.87,45.77,105,39.63,92.53,37.05ZM67.89,105.52c-.27.18-.46.29-.62.42-2.08,1.65-4.11,3.37-6.25,4.94-6.22,4.56-13.25,3.8-18.41-1.92a4.24,4.24,0,0,0-.39-.33l-.19.21c1,1.08,1.89,2.23,2.93,3.24,3.78,3.67,8.92,4.53,13.45,1.88,2.86-1.66,5.38-3.91,8.09-5.84A2.84,2.84,0,0,0,67.89,105.52Zm-5.18,2.83c-1.32.61-2.62,1.27-4,1.83-5,2.11-9.8,1.79-13.88-2A44.2,44.2,0,0,1,40,102.28a22.27,22.27,0,0,1-1.65-3,24.46,24.46,0,0,0,4.85,9.23,12.66,12.66,0,0,0,5.66,3.95C54.41,114.22,58.8,112,62.71,108.35ZM8.6,50.24l-.23.34a38.09,38.09,0,0,0,3.9,2.74A16.73,16.73,0,0,0,23,54.59c8.7-1.43,16.27-5.33,23.13-10.73.67-.52,1.27-1.15,1.9-1.72a16.93,16.93,0,0,0-2.88,1.67c-6.29,4.06-12.8,7.67-20.13,9.43C19.13,54.64,13.41,54.84,8.6,50.24ZM140.21,60.66c-.07.2,0,.12,0,.07a3,3,0,0,0-.19-.5,35.74,35.74,0,0,0-4.86-7.57c-7.25-8.15-16.51-13.31-26.3-17.65a20.88,20.88,0,0,0-3.9-.9l-.08.28a66,66,0,0,1,18.33,9.5c4.28,3,8.62,6,12,10C137.07,56.07,138.62,58.48,140.21,60.66ZM48.61,17l.08-.21c-1.7-.79-3.4-1.58-5.11-2.35-7.22-3.24-14.66-5.55-22.7-5.32a18.75,18.75,0,0,0-7.45,1.35,5.17,5.17,0,0,0-2.64,2.28,34,34,0,0,1,3.94-1.62c4.73-1.29,9.53-1,14.3-.3a75.48,75.48,0,0,1,15.2,4.53Zm-11,90.65c1.19,3.18,2.49,6.93,5.15,10,3.61,4.18,8.11,6,13.61,5.15A11,11,0,0,0,62.23,120a25.36,25.36,0,0,1-4.42,1.42c-6.36.85-11.6-1.46-15.55-6.38A68.45,68.45,0,0,1,37.58,107.64ZM54,42.66c-.06.16-.14.31-.2.47a12.12,12.12,0,0,0,.37,7.39A59.71,59.71,0,0,0,64.86,70a3.72,3.72,0,0,0,.51.38c-.2-.4-.24-.53-.31-.64a105.34,105.34,0,0,1-9.23-18.87A22.89,22.89,0,0,1,54,42.66Zm-31.4-6.61c10-.31,20.07-3.48,30.4-5.4a44,44,0,0,0-13.63,1.29C33.52,33.35,27.72,34.78,22.56,36.05ZM6.21,41.69A9.19,9.19,0,0,0,10.91,46a16,16,0,0,0,8.87.76,46.5,46.5,0,0,0,11.79-3.54C36.31,41.19,41,39,45.68,36.83l-.14-.31C43.7,37.36,41.86,38.18,40,39c-6.5,3-13,6-20.29,6.68C14.7,46.21,10,45.42,6.21,41.69Zm35.36,55.1a17.51,17.51,0,0,0,24.66,6.86C56.71,105.87,48.23,104.6,41.57,96.79ZM10.83,25.62l.05.35a3,3,0,0,0,.42,0c2.45-.26,4.9-.69,7.37-.76,3.69-.12,7.39.13,11.08,0,5.56-.2,11.1-.74,16.66-.88,5-.12,10,.06,14.54,2.52a7.94,7.94,0,0,0-6.06-3Q46.94,23.75,39,24c-4.52.13-9,.53-13.54.7-3,.12-6-.08-8.94.07A55.1,55.1,0,0,0,10.83,25.62Zm34.36,23-.82.7a47.84,47.84,0,0,1-10.89,7.25,25.48,25.48,0,0,1-14.28,2.6c-1.3-.17-2.56-.53-3.92-.82C23.42,63.13,39.25,58,45.19,48.63Zm2-33.52A67.45,67.45,0,0,0,32.9,8.65,30.75,30.75,0,0,0,21.36,7,9.29,9.29,0,0,0,15.94,8.8a41.8,41.8,0,0,1,16.2.79A84.1,84.1,0,0,1,47.14,15.11ZM44.39,55.63a.89.89,0,0,0-.14.24,4.31,4.31,0,0,0-.19.61A15.24,15.24,0,0,0,44.21,64,42.5,42.5,0,0,0,62.35,90.29a1.27,1.27,0,0,0,.39.12.65.65,0,0,0-.27-.39A57.51,57.51,0,0,1,48.74,73.88c-2.29-4-4.09-8.15-4.33-12.81C44.31,59.26,44.39,57.44,44.39,55.63Zm24.32,48.15-.1-.35c-8.59,4.88-16.82,5.15-24.52-1.72a.86.86,0,0,0,.18.45c.52.64,1,1.29,1.59,1.89,3.27,3.55,7.27,5.47,12,4.22,3.5-.91,6.81-2.55,10.2-3.89C68.35,104.28,68.51,104,68.71,103.78Zm-11.25-85-1.32-.68c-4.64-2.48-9.31-4.9-13.91-7.46A39.67,39.67,0,0,0,31.64,6.27,22,22,0,0,0,22.87,6c2.2.3,4.39.46,6.51.92A63.35,63.35,0,0,1,47,14.09,55.19,55.19,0,0,0,57.46,18.73ZM79.2,95.78c.51.34,1,.71,1.53,1,6.35,3.91,13.09,6.28,20.69,5.29A17.8,17.8,0,0,0,110,98.47,28.22,28.22,0,0,1,94.32,101,46.42,46.42,0,0,1,79.2,95.78ZM59,38a2.2,2.2,0,0,0-1.8,1.83,17.41,17.41,0,0,0,.09,7.57,57.6,57.6,0,0,0,8,18c0,.06.12.08.37.24l-.61-1.25c-2.49-5-4.9-10.11-6.26-15.6C58,45.28,57.09,41.7,59,38ZM35.22,35.35A108.58,108.58,0,0,1,6.87,36.61C16.5,40,25.85,37.55,35.22,35.35Zm9.15,15.88C35.83,60.35,25.71,63,13.86,59A19.57,19.57,0,0,0,17,60.69c4.23,1.62,8.52,1.21,12.8.23A24.32,24.32,0,0,0,44.37,51.23Zm25,50.26-.19-.22a7.67,7.67,0,0,0-1,0c-3.37.45-6.73,1.08-10.12,1.33a18,18,0,0,1-14-4.62,4.7,4.7,0,0,0-.53-.38,16.77,16.77,0,0,0,6.6,4.69c6.19,2.5,12.37,1.76,18.52-.2C69,102,69.17,101.7,69.39,101.49Zm-59-48.14c.28.25.56.52.85.76a12.32,12.32,0,0,0,8.54,2.67c5.38-.17,10.28-2.08,15-4.5,1.55-.79,3-1.71,4.56-2.56a2.29,2.29,0,0,0-1.23.37A45.5,45.5,0,0,1,24.94,55C19.94,55.94,15,56.1,10.34,53.35ZM114.11,36.27l-.17.21c.29.16.58.34.88.49a81.68,81.68,0,0,1,12.4,7.48c5.11,3.85,9.78,8.11,12.68,14a1.86,1.86,0,0,0,.22.27l.23-.26C135,47.06,125.07,41,114.11,36.27ZM31.3,4.44c.82.17,1.65.32,2.47.53A45.08,45.08,0,0,1,45.1,10.06c3.18,1.84,6.42,3.57,9.63,5.34,0-.27-.13-.35-.27-.44C50.18,12.21,46,9.35,41.61,6.72A17.24,17.24,0,0,0,31.3,4.44Zm8.29,76.85C43.45,89.8,48.71,96.8,58.49,99,50.19,95.2,44.16,89,39.59,81.29Zm-20.1-19c7.17,3.06,17,.2,20.9-5.6C35.83,60.4,28.54,63.23,19.49,62.25ZM60.39,38c-1.55,1.4-1.74,3.23-1.71,5.12a25.92,25.92,0,0,0,1.79,8.48c1.32,3.57,2.79,7.09,4.2,10.63l.38-.12C62.07,54.32,58.7,46.63,60.39,38ZM35.81,129c.91,1.12,1.8,2.25,2.73,3.35,3.33,3.93,7.4,6,12.69,5.08a14.45,14.45,0,0,0,6.16-2.7C48.53,139,41.81,135.53,35.81,129ZM33,36.83a1.63,1.63,0,0,0-.31,0c-3.8.66-7.59,1.45-11.41,2a30.33,30.33,0,0,1-12-.56c-1.49-.38-2.92-1-4.38-1.49a6,6,0,0,0,1.42,1.43A12.36,12.36,0,0,0,13,40C19.82,40.28,26.39,38.66,33,36.83ZM141.42,145l1.84,2.22c.91,1.11,1.82,1.13,2.78.06a4.14,4.14,0,0,0-.27-5.07Zm-30.07-45.9a53.75,53.75,0,0,1-5.27,2.54,26.65,26.65,0,0,1-5.81,1.48,31.18,31.18,0,0,1-6.11.05c-2-.15-3.93-.6-5.91-.93C95.8,106.27,106.35,104.22,111.35,99.08ZM31,72.13l-.23,0c-.51,2-1,3.94-1.54,5.9-1.5,5.52-3.36,11-3.84,16.71a28.94,28.94,0,0,0,.39,8.14c0-1.19,0-2.33,0-3.46a74,74,0,0,1,2.41-15.14C29.19,80.21,30.1,76.17,31,72.13ZM86,102l-.19.47c.77.38,1.51.82,2.3,1.13,1.24.47,2.54.77,3.76,1.27,5.23,2.16,10.23,1.53,15-1.21.79-.45,1.5-1,2.25-1.56C101.41,106.07,93.72,106.35,86,102ZM63.42,117.75c-7.27,3.65-13.67,2.21-19.72-2.19,3.79,3.84,8.32,5.79,13.74,5.24A9.34,9.34,0,0,0,63.42,117.75Zm1.73-7.28c-2.12,1.39-4.46,3.11-7,4.51a11.17,11.17,0,0,1-8.55.75C55.82,118.7,61.35,116.33,65.15,110.47Zm-47.52-48c4.15,3.48,10.92,4.65,14.86.8A20.73,20.73,0,0,1,17.63,62.44Zm46,57.54-.06-.09c-5,4.64-10.64,4.68-16.77,2.29A11.44,11.44,0,0,0,63.64,120Zm77.77-61.64c-.3-7-10.24-17.8-18.07-19.72a33.69,33.69,0,0,1,11,8A36.89,36.89,0,0,1,141.41,58.34ZM35.2,3.68c6.44,1,11.16,5.31,16.59,8.21C47.1,7.45,42.08,3.66,35.2,3.68Zm55,101.47c5.6,4.37,14.2,2.5,17.39-.94a21.12,21.12,0,0,1-8.62,2.69C95.84,107.15,93,106,90.16,105.15Zm31-66.51A57.26,57.26,0,0,1,136,50C132.38,44.53,127.21,41,121.19,38.64ZM54.27,16.31l.09-.18c-.42-.25-.83-.51-1.25-.75-3.32-1.85-6.59-3.79-10-5.53-2.7-1.39-5.51-2.55-8.28-3.78a9.45,9.45,0,0,0-1.75-.49c-.55-.12-1.11-.18-1.66-.26A44.49,44.49,0,0,1,44.2,10.91c2.52,1.56,5.18,2.9,7.8,4.32C52.73,15.63,53.51,16,54.27,16.31Zm6.59,99.94a9.89,9.89,0,0,0,6-6.3Zm89.28,19-5.08,6.38C148.33,139.4,150.53,136.67,150.14,135.21ZM21.34,65.59C24,67,26.79,67.65,29.65,66A14,14,0,0,1,21.34,65.59Zm37.77,65.86c1.84-.35,4.61-2.42,4.67-4.21Z" style="fill:#5672b7"/><path d="M143.34,101.83A2.17,2.17,0,0,0,146,101,3.34,3.34,0,0,1,143.1,104c-.71.09-1,.32-1,1.07s-.12,1.56-.14,2.34a2,2,0,0,0,.2.92c.77,1.39.8,1.66.14,3.17a31.63,31.63,0,0,1-4.75-1.74,3.53,3.53,0,0,1-1.75-1.62,3.49,3.49,0,0,0-2.32-1.51c-1.71-.33-3.49-.28-5.23-.48a25.13,25.13,0,0,1-2.65-.58l0-.41a5.33,5.33,0,0,1,1-.18,12.21,12.21,0,0,0,5.6-1.32c2-1,4-2,6.09-3a8.39,8.39,0,0,1,2.77-.75C142.61,99.87,143.14,100.41,143.34,101.83Zm-4,6.42L139,105.5l-5.3.27v.31Zm.94-3.52a1.68,1.68,0,0,0-.82,2,2.51,2.51,0,0,0,.85,1.36c.07.08.64-.32,1.14-.58C140,107,140.21,106,140.31,104.73Z" style="fill:#5672b7"/><path d="M69.93,111.15a5.93,5.93,0,0,1-.37-1.2,5.16,5.16,0,0,1,.94-3.78c1.7-2.2,3.53-4.3,6.57-4.59A7.35,7.35,0,0,1,85,107.94c.27,2-.8,3.81-1.59,5.61-.08.19-.38.28-.77.32l1.22-3.64-.24-.18a36.79,36.79,0,0,0-3.18,2.3,5.92,5.92,0,0,0-1.22,6.18c.28.58.94,1,1.44,1.45a6.21,6.21,0,0,0,.6.4c-1.17.67-2,.53-2.41-.46-1.47-3.2-1-7.28,2.52-9.3.44-.25.85-.53,1.27-.81,1.51-1,1.64-1.38,1.15-3.12-.84-3-5.07-5.83-8.79-3.51a17.85,17.85,0,0,0-3.31,2.7,4.94,4.94,0,0,0-1.32,4.27,4.34,4.34,0,0,1-.06.95Z" style="fill:#5672b7"/><path d="M89.66,167.5a4.27,4.27,0,0,1,.13.77c-.32,5-.57,10-1,15-.31,3.57-1.09,7.1-1.31,10.66a28,28,0,0,0,2.69,13.15,6.17,6.17,0,0,1,.24,1.07l-.37.13a10.5,10.5,0,0,1-.65-1.12A31.73,31.73,0,0,1,87.28,188a114.19,114.19,0,0,0,1.83-19.26c0-.43.09-.85.14-1.28Z" style="fill:#5672b7"/><path d="M144.93,121.62c-.3,1-.65,2-.87,3a4.57,4.57,0,0,0,0,1.69c.34,2.16,1.63,2.71,3.39,1.43a24.16,24.16,0,0,0,1.91-1.74,3.64,3.64,0,0,1,3-1.15c.41.06.76.5,1.14.76-.36.39-.65.95-1.09,1.14a2,2,0,0,1-1.44-.18c-.66-.32-1,0-1.48.35a14,14,0,0,1-3.05,2.07,2.06,2.06,0,0,1-2.84-1.36,7.06,7.06,0,0,1,.55-5.8c.1-.2.39-.31.59-.45Z" style="fill:#5672b7"/><path d="M100.89,151.68a3.1,3.1,0,0,1-.81-.07c-2-.78-4-1.55-6-2.39a5.22,5.22,0,0,1-3.22-4.39c-.29-2.23-.37-4.49-.52-6.74a3.13,3.13,0,0,1,.21-.81l.34,0c0,.38.12.77.15,1.16.22,2.21.36,4.42.65,6.62a4.08,4.08,0,0,0,2.56,3.35c1.9.82,3.83,1.57,5.75,2.36.35.15.68.35,1,.52Z" style="fill:#5672b7"/><path d="M83.9,115.62c.21-.24.37-.56.63-.7a2.93,2.93,0,0,1,4.13,1.45,9.71,9.71,0,0,1,.66,2.46c.18,1,.41,1.82,1.54,2.08.22,0,.37.35.67.66-1.54.09-2.26-.32-2.64-1.44a9.74,9.74,0,0,1-.39-1.78c-.37-2.64-1.72-3.44-4.32-2.52Z" style="fill:#5672b7"/><path d="M132.65,102c.08-.2.11-.47.26-.58,1.59-1.15,3.14-2.37,4.81-3.38a3,3,0,0,1,3.78.24,5.36,5.36,0,0,1,.63,1.07c-.43-.07-.62,0-.69-.12-1.23-1.4-2.4-1.19-4-.18-1.18.73-2.25,1.65-3.37,2.47-.36.26-.76.48-1.14.71Z" style="fill:#5672b7"/><path d="M81.91,124.23c-.5.13-.74.28-.93.24a8.7,8.7,0,0,1-6.3-4.68c-.1-.22,0-.55,0-.82.22.14.55.22.65.42a8,8,0,0,0,5.69,4.3A4.87,4.87,0,0,1,81.91,124.23Z" style="fill:#5672b7"/><path d="M91.11,127.14c-.87.54-1.5,1-2.17,1.32a12.27,12.27,0,0,1-1.83.78c-.15,0-.4-.17-.6-.27a2.74,2.74,0,0,1,.48-.43c.81-.49,1.63-1,2.47-1.4C90,126.86,90.6,126.49,91.11,127.14Z" style="fill:#5672b7"/><rect x="162.16" y="99.04" width="1.08" height="55.47" transform="translate(-41.59 98.33) rotate(-30)"/><rect x="148.92" y="122.47" width="1.08" height="46.97" transform="translate(77.7 -50.24) rotate(25.59)"/></svg>