<svg id="Layer_1" data-name="Layer 1" xmlns="http://www.w3.org/2000/svg" viewBox="0 0 179.19 168.37"><title>skeletal-1</title><path d="M147.86.06l.68-.06c.78,3.18,1.64,6.31,2.29,9.48a29.91,29.91,0,0,1,.63,5.89,65.64,65.64,0,0,1-.59,6.54c-.24,2.15-.51,4.29-.77,6.44-.18,1.47-.41,2.93-.52,4.4a21.94,21.94,0,0,0,1.16,9.43c1.52,4.06,4.12,7.42,6.73,10.77s5.45,6.76,8.08,10.21c1.75,2.31,3.42,4.7,5,7.16a16.58,16.58,0,0,1,2.22,5.05A8.24,8.24,0,0,1,170.82,83a22.38,22.38,0,0,1-5.11,4.4c-2.29,1.45-4.62,2.84-6.92,4.29A28.67,28.67,0,0,0,155,94.26a12.54,12.54,0,0,0-3.79,5.21,8.81,8.81,0,0,0-.06,5.47,27.92,27.92,0,0,0,1.81,4,10.88,10.88,0,0,1,1.35,6.19,4.3,4.3,0,0,1-.89,1.82,7.21,7.21,0,0,1-4.44,3.24c-.78.14-1.57.2-2.46.32a13.32,13.32,0,0,0,1.17.72c1.84.9,2.4,2.54,2.67,4.4a4.37,4.37,0,0,1-.87,3.76,13.27,13.27,0,0,1-2.81,2.3,39.41,39.41,0,0,0-3.54,2.66,14.12,14.12,0,0,0-3.56,5.23,4,4,0,0,0-.34,1.67c0,1.93.18,3.85.23,5.77,0,1.13-.06,2.26-.1,3.38-.05,1.45-.06,2.9-.17,4.34a17.93,17.93,0,0,1-1,5.58,12.33,12.33,0,0,1-4.15,5.12,22.19,22.19,0,0,1-2.48,1.7,9.77,9.77,0,0,1-4.73,1.22c-2.62.06-5.24,0-7.86,0-1.35,0-2.7-.22-4.05-.33-.16-.54,0-.75.57-.7,1.44.11,2.88.24,4.31.31s3,.09,4.44.09q1.68,0,3.36-.15a10.53,10.53,0,0,0,5.42-2.25,12.61,12.61,0,0,0,4.44-5.24,10.72,10.72,0,0,0,.72-2.94c.2-2.44.28-4.88.4-7.33,0-.95.13-1.91.1-2.86,0-1.61-.19-3.21-.25-4.82a9.5,9.5,0,0,1,1.79-5.5c1.73-2.75,4.28-4.55,7-6.22a4.5,4.5,0,0,0,2.45-3.15,10.72,10.72,0,0,0-.48-3.34c-.26-1.13-1.24-1.67-2.14-2.25a4.79,4.79,0,0,0-3-.78,16.89,16.89,0,0,1-2.18-.15c-.08.5-.15,1-.25,1.51-.19,1-.42,2-.6,3a2.62,2.62,0,0,0,.07.73c.08.61-.06.78-.68.8l-.77,0c-.28-.92-.54-1.85-.84-2.77a11,11,0,0,0-2.3-4.71,8.42,8.42,0,0,1-1.7-3.7,7.23,7.23,0,0,0-.59-2c-.72-1-.77-2.3-1.48-3.3s-1.35-2-2.05-3a17.64,17.64,0,0,0-3.33-3.83,7.56,7.56,0,0,0-4.27-1.56l-6.81-.49L111,101l-7.57-.51c-.12.81-.23,1.65-.37,2.48-.27,1.63-.5,3.26-.84,4.86a17.45,17.45,0,0,0-.09,5c.11,1.4.22,2.81.21,4.21,0,.4-.39.81-.63,1.18a10.49,10.49,0,0,1-.68.84l4,.51c3.34.45,6.68.91,10,1.34,2.53.33,5.06.61,7.58.93s5.08.67,7.61,1c1.24.17,1.21.17,1.72-1,.15-.34.53-.57.74-.78,1.32.27.95,1.41,1.39,2.21.89.12,1.86.24,2.82.39a1.43,1.43,0,0,1,.47.28c-.17.06-.36.2-.52.19-.81-.1-1.61-.24-2.41-.36-.32,0-.51,0-.56.41-.27,1.75-.56,3.49-.82,5.24,0,.16.13.36.22.53s.37.49.34.71a1,1,0,0,1-.49.66,1.73,1.73,0,0,0-1.05,1c-.54,1.19-1.26,2.29-1.85,3.47a5.5,5.5,0,0,0-.18,1.18c-.42,1.9-.92,3.77-1.28,5.67a36.42,36.42,0,0,0-.44,4,1.63,1.63,0,0,0,.54,1.65c.13.09.08.46.09.71a3.87,3.87,0,0,0,0,1.13,49.17,49.17,0,0,1,2.07,7.25c1.23.86.12,1.8,0,2.65a4.55,4.55,0,0,1-1.62,3,4.92,4.92,0,0,1-1.55.89c-1,.28-2,.42-3,.64a.85.85,0,0,1-1.09.73c-.27-.07-.65-.27-.7-.48s-.28-.41-.56-.47c-2.73-.57-5.48-1-8.18-1.74-3.46-.87-6.88-1.9-10.3-2.91-3.06-.9-6.09-1.89-9.15-2.79-2.44-.71-4.9-1.37-7.36-2-3.07-.81-6.15-1.56-9.21-2.37s-6.19-1.58-9.21-2.59c-3.43-1.14-6.93-2.19-10-4.14a40.49,40.49,0,0,1-3.55-2.84c-.86.2-.84.2-1.37-.78a.93.93,0,0,0-.56-.33c-3.5-1.14-7-2.26-10.5-3.39a1.81,1.81,0,0,1-.35-.13c-.07,0-.1-.16-.15-.24s.2-.15.29-.14a3.08,3.08,0,0,1,.6.14l10.38,3.34a5.73,5.73,0,0,0,.63.14,25.64,25.64,0,0,1-1.25-2.53c-.6-1.6-1.13-3.23-1.61-4.86s-1-3.42-1.32-5.16-.68-3.81-.94-5.72-.42-3.52-.58-5.29-.26-3.57-.39-5.44L10.6,107.87l-.63.69-.16-.78-3-.39c-2.13-.29-4.25-.57-6.37-.87-.15,0-.28-.17-.42-.26a1.76,1.76,0,0,1,.51-.16q3.17.39,6.33.81l2.59.36c.34,0,.65.1.76-.39.93-3.89,1.89-7.79,2.81-11.69.17-.68.21-1.4.34-2.09,0-.16.2-.3.4-.4-.48,5-2.08,9.72-3.17,14.7l14.14,1.84a4.53,4.53,0,0,1-.08-1.27c0-.22.44-.36.77-.61.1-2,1.22-3.69,2.16-5.46,1.25-2.34,2.59-4.63,4-6.89,1.78-2.93,3.53-5.88,5.49-8.69,2.51-3.61,5.16-7.14,7.86-10.61A54.06,54.06,0,0,0,52,64.61c.51-1.14,1-2.28,1.58-3.5L10.4,71.73c.7,2.82,1.45,5.52,2.06,8.26.54,2.46.94,5,1.4,7.43a.77.77,0,0,1,0,.37,1.8,1.8,0,0,1-.22.37,1.35,1.35,0,0,1-.21-.39,75.16,75.16,0,0,0-2.13-10.71c-.43-1.71-.9-3.42-1.37-5.19l-1.24.29c-1.74.43-3.48.86-5.22,1.27a1.64,1.64,0,0,1-.6-.1A2.11,2.11,0,0,1,3.38,73c2.08-.52,4.17-1,6.26-1.53l16.37-4L40.8,63.76c4.22-1,8.44-2.08,12.66-3.09.45-.11.56-.4.71-.75a24.31,24.31,0,0,1,3.1-5,19.55,19.55,0,0,1,4.26-4.21,2.54,2.54,0,0,1,2.21-.62,2.1,2.1,0,0,1,1.08.91A5.09,5.09,0,0,1,65,54.79c-.27,1-.5,2.05-.77,3.17l2.21-.5c.1,0,.19-.15.24-.25.36-.82.85-1,1.6-.49a1.14,1.14,0,0,0,.58.12,1.73,1.73,0,0,0,.49-.11c1.14-.28,1.08-.29,1.21-1.45.16-1.4.27-2.86,1.37-3.92A10,10,0,0,1,75.6,49.2a55.53,55.53,0,0,1,7.51-1.93A58.8,58.8,0,0,0,94,44c2.85-1.23,5.74-2.35,8.61-3.55a36.52,36.52,0,0,0,4.14-1.85c2.43-1.4,5.14-2,7.74-2.91,1.52-.55,3.07-1,4.61-1.53.32-.1.64-.18,1-.27.26.42.4.64-.25.83-2.34.72-4.65,1.54-7,2.31-1.36.45-2.73.89-4.08,1.37-.42.15-.78.47-1.19.66-.89.42-1.79.81-2.69,1.2-2.56,1.09-5.11,2.21-7.68,3.27a73.91,73.91,0,0,1-13.77,4.42c-2.25.44-4.47,1-6.67,1.64a9.68,9.68,0,0,0-4.06,2.12,3.6,3.6,0,0,0-1.17,2c-.14.81-.26,1.63-.41,2.58L76,55.1,92.86,51l19.4-4.76c3.64-.9,7.28-1.82,10.93-2.68.61-.14.74-.62,1-1a4.44,4.44,0,0,0,.33-.62l.7.37-.43.82,14.9-3.67c.22-.36.38-.61.53-.87a4,4,0,0,0,.39-.7c.79-2.13,1.6-4.25,2.32-6.4a27.52,27.52,0,0,0,1.67-8.17c.07-2.41.11-4.83.07-7.24-.05-2.61-.2-5.22-.31-7.88h.73c.07,2,.13,3.93.19,5.86s.11,3.94.15,5.91A31.93,31.93,0,0,1,144,30.43c-.81,2.53-1.75,5-2.65,7.51-.11.31-.16.52.11.77a.72.72,0,0,1,.17.53,4.46,4.46,0,0,0,.65,2.38,29.19,29.19,0,0,0,4.82,6.83,25.67,25.67,0,0,0,2.61,2.12,2.37,2.37,0,0,1,.62.69,2.78,2.78,0,0,1,.14.83,2.49,2.49,0,0,1-.7-.21c-1.23-.82-2.44-1.67-3.66-2.51a12.48,12.48,0,0,0-1.75-1.18,17.74,17.74,0,0,1-3.49-2.5c-.87-.7-1.63-1.53-2.46-2.29a11.19,11.19,0,0,0-1-.71l.58-.65A37.32,37.32,0,0,0,146,48.4c-.68-.93-1.41-2-2.22-3a17.31,17.31,0,0,1-2.62-4.74c-.12-.33-.19-.66-.67-.24-.32.29-.69,0-.68-.57l-6.41,1.61c-2.73.68-5.46,1.4-8.21,2-.94.2-1.23.88-1.61,1.51a24.55,24.55,0,0,0-2.76,6.6,17.31,17.31,0,0,0-.38,5.91,36.32,36.32,0,0,0,.75,5,8.16,8.16,0,0,0,4.36,5.71,14.13,14.13,0,0,0,2.69.78c.15,0,.35-.11.53-.12a2.29,2.29,0,0,1,.52,0c-.07.22-.09.57-.22.62a2.3,2.3,0,0,1-1,.13,8.63,8.63,0,0,1-7.33-6.29,30.92,30.92,0,0,1-1-6.41,21.47,21.47,0,0,1,2.06-10.24A27.86,27.86,0,0,1,123.24,44l-9.11,2.24q7.64,22.92,15.21,45.72c1.49-.28,2.93-.65,4.39-.81a38.16,38.16,0,0,1,5.12-.24c1.81.06,3.61.35,5.41.55.27,0,.52.13.79.18s.74.28,1.17,0a1,1,0,0,1,1,.15,1.23,1.23,0,0,1,.23.94c-.17,1.16-1.2,1.49-2.06,1.89-1.74.8-3.52,1.49-5.26,2.28a3.59,3.59,0,0,0-2.24,3.39,11.42,11.42,0,0,0,.28,4.08c.39,1.25.87,2.47,1.31,3.7a10.74,10.74,0,0,1,.72,2.06c.23,1.77,1.38,3.22,1.65,5a18,18,0,0,1,.36,2.26,20.59,20.59,0,0,1-.24,2.61l2.4-.13c1.37-.08,2.75-.14,4.12-.25a5.52,5.52,0,0,0,3.59-2.05c.43-.47.77-1,1.17-1.53a2.7,2.7,0,0,0,.48-2,12,12,0,0,0-1.78-5.36,12.9,12.9,0,0,1-1.79-5.28,9.58,9.58,0,0,1,2.29-7.36,24.68,24.68,0,0,1,6.78-5.38c2.6-1.58,5.22-3.15,7.72-4.88a14.22,14.22,0,0,0,4.75-5.31,6.86,6.86,0,0,0,0-5.84,43.24,43.24,0,0,0-6.27-10.27c-2.61-3.39-5.36-6.67-8-10.06-1.85-2.41-3.62-4.89-5.33-7.41a21.46,21.46,0,0,1-2.91-7.34,27.16,27.16,0,0,1,0-9.6c.39-3.22.75-6.46,1.21-9.67a28.79,28.79,0,0,0,.18-8.13c-.28-2-.79-4-1.25-6s-1-3.75-1.44-5.63A2.07,2.07,0,0,1,147.86.06ZM82.57,99.9a1.5,1.5,0,0,1-.08.3,1,1,0,0,1-1,.53.83.83,0,0,1-.72-.83.89.89,0,0,1,.6-1,5,5,0,0,1,1-.33c2.51-.51,5-1.06,7.51-1.5Q96.23,96,102.65,95c2.39-.37,4.79-.66,7.19-.92,2.09-.22,4.2-.32,6.3-.51,2.64-.23,5.28-.46,7.91-.76,1.61-.18,3.2-.47,4.87-.72q-6.6-19.78-13.08-39.26c-1.4-.26-2.73-.44-4-.78A4.44,4.44,0,0,1,110,51a29.16,29.16,0,0,1-2.44-2.76.64.64,0,0,0-.78-.25c-3.14.8-6.29,1.56-9.43,2.33L73.72,56.13c-.81.19-1.6.41-2.43.63.09.53.15,1,.24,1.43A2.45,2.45,0,0,1,70.34,61a8.59,8.59,0,0,1-3.91.69c-2-.09-3.05-1.06-3.06-2.88,0,0,0-.07-.08-.13l-8.4,2.08a.77.77,0,0,0-.42.41c-.73,1.49-1.38,3-2.16,4.5a57.18,57.18,0,0,1-3.24,5.64c-1.7,2.44-3.64,4.72-5.42,7.11-2,2.62-4,5.22-5.77,8-2.34,3.54-4.57,7.15-6.73,10.8-1.63,2.76-3.09,5.63-4.58,8.47a10.81,10.81,0,0,0-.58,1.8l.17.13a4.12,4.12,0,0,0,.86-.28c1.54-.91,3.13-1.76,4.59-2.79,4.52-3.2,9.09-6.32,13.84-9.17a1.49,1.49,0,0,0,.54-.82c.41-1.21.68-2.48,1.16-3.67.68-1.69,1.92-2.77,3.84-2.45a31.59,31.59,0,0,1,4.25,1.2,1.28,1.28,0,0,0,1,0c1-.41,2.06-.69,3.07-1.1,2.5-1,5-2,7.48-3.09.86-.37,1.68-.83,2.52-1.25.52-.26.83-.19.83.42a77,77,0,0,1-13.73,5.69,6,6,0,0,1-.77,6.4l-.6-.34c.3-.58.59-1.11.85-1.66a5,5,0,0,0,.16-3.5c-.1-.38-.39-.58-.87-.33-1.85,1-3.72,1.87-5.57,2.83-.68.35-1.3.79-1.76,1.07a3.4,3.4,0,0,1,.23,1.13c-.1.53-.69.79-1.47.75.08.86.09,1.72.25,2.55.4,2.13.92,4.24,1.29,6.38s.62,4.2.89,6.31c0,.32.1.5.44.54,2.48.32,4.95.67,7.43,1s5,.6,7.57.92c3.3.44,6.6.91,9.9,1.35s6.65.86,10,1.27a8.45,8.45,0,0,0,2.34.14c1-.17,1.87-.55,2.89-.07a4.78,4.78,0,0,1,.35-3.3,20.8,20.8,0,0,0,1.32-3.09c.45-1.92.72-3.89,1-5.84.21-1.44.31-2.9.48-4.34.06-.48-.12-.59-.54-.59H82.57Zm-33.43,13c0,.33,0,.58,0,.83.12,1.43.24,2.87.38,4.3.19,2,.41,4,.6,6a53.22,53.22,0,0,0,1.66,8.39,37.47,37.47,0,0,0,2.41,7.21c.37.73.59,1.6,1.46,2a.59.59,0,0,1,.28.4c0,.42.28.44.55.52l12.48,4,17.59,5.65,12.78,4.1c2.84.92,5.68,1.84,8.53,2.74a.82.82,0,0,0,.62,0,16,16,0,0,0,1.34-1.13,9,9,0,0,1,4.9-2.58c.82-.1,1.65-.17,2.4-.25,0-.59.06-1.12.09-1.66a14,14,0,0,1,1.14-4.65c.87-2.13,1.84-4.22,2.84-6.3s2.11-4.18,3.15-6.27c.61-1.23,1.23-2.46,1.78-3.72a15.9,15.9,0,0,1,2.31-4.46,16.31,16.31,0,0,0,1.49-1.74c.53-.81,1-1.7,1.46-2.64l-31.23-4c-.15,1.17-.29,1.3-1.25,1.25a4.25,4.25,0,0,1-1.18,2.76,6.9,6.9,0,0,0-1.8,4.91,20,20,0,0,1,.2,2.3,25.91,25.91,0,0,1-.38,3.73,15.05,15.05,0,0,1-2.94,7.34,1.87,1.87,0,0,1-1.72.48,1.22,1.22,0,0,1-.59-1.41c.2-1.42.58-2.83.67-4.26a45,45,0,0,0-.06-5.06,1.26,1.26,0,0,0-1-1.16c-.59-.13-.72.46-1,.79,0,0,0,0,0,.06-1.12,1.81-1.31,3.89-1.62,5.92a5.56,5.56,0,0,1-1.64,3.36.78.78,0,0,1-1.37-.23A4.64,4.64,0,0,1,84,139a22.67,22.67,0,0,1-.14-6.63c.27-2.14,1.09-4.21.77-6.42-.24-1.6-.51-3.2-.74-4.8a11.3,11.3,0,0,1-.15-2,1.57,1.57,0,0,1,1.06-1.62c-6-.8-11.86-1.55-17.77-2.32ZM133,109.23l.06,0c-.45-1.77-.94-3.53-1.34-5.32s-1.2-3.52-.75-5.43c0-.11-.05-.25-.09-.36-.53-1.61-1.07-3.22-1.58-4.83-.13-.41-.27-.57-.74-.48-1.32.25-2.66.48-4,.64-2.47.28-4.93.5-7.4.73-1.62.15-3.24.26-4.86.43-2.07.22-4.14.44-6.21.71-3.6.48-7.2,1-10.67,1.47.35.74.67,1.44,1,2.12.09.18.26.43.41.44,1.26.12,2.53.19,3.75.27.58-.71.68-1.89,1.89-1.74s1,1.15,1,1.93l7.12.51,5.93.4c2.48.17,5,.27,7.43.58a8.66,8.66,0,0,1,3.26,1.15,11.6,11.6,0,0,1,3.44,3.5ZM91.17,141.52c.53.09.89.14,1.15-.32.43-.75,1-1.46,1.34-2.24a17.08,17.08,0,0,0,1.59-5.71,19.91,19.91,0,0,0,0-3.86,7.87,7.87,0,0,1,.79-4.71c.46-.81,1.06-1.55,1.6-2.32a2.09,2.09,0,0,0,.21-2.26,2.74,2.74,0,0,0-3.41-1,3.2,3.2,0,0,1-3.42-.37,3.05,3.05,0,0,0-1.15-.61,10.17,10.17,0,0,0-4.75.08c-.39.11-.66.3-.68.7a8.17,8.17,0,0,0,0,1.64c.22,1.5.52,3,.75,4.49A12.33,12.33,0,0,1,85,130a24.08,24.08,0,0,0-.36,8.67,6.36,6.36,0,0,0,.61,1.51c.31-.4.53-.67.73-1,1-1.38.88-3,1.21-4.61a10.08,10.08,0,0,1,1.65-4.27,1.48,1.48,0,0,1,2.32-.2,3.08,3.08,0,0,1,.85,2.27,23.15,23.15,0,0,1-.55,7.09C91.29,140.13,91.26,140.8,91.17,141.52ZM45.85,96l-2.53,1.59c-1.93,1.21-3.88,2.38-5.77,3.64-2.95,2-5.84,4-8.78,6a3.6,3.6,0,0,1-1.44.71c-.89.09-1.09.69-1.4,1.41l22.31,2.9a2.67,2.67,0,0,0,0-.56c-.22-1.77-.38-3.56-.71-5.32C46.92,103,45.89,99.62,45.85,96Zm83.28,41.67c-1.65,2.24-3.29,4.5-5,6.72a4.19,4.19,0,0,1-1,.68c-.18.13-.42.25-.5.43-1.31,2.84-2.62,5.69-3.88,8.56a4.09,4.09,0,0,0-.6,2.11,12.25,12.25,0,0,0,1.2,3.32c.69,1.36,2,2.22,3,3.3a4.23,4.23,0,0,0,2.79,1.13,10,10,0,0,0,2.74-.47c-.22-.59-.43-1.05,0-1.46s1-.31,1.59.27c.35-.9.67-1.67,1-2.46,0-.11-.08-.31-.18-.41a1.05,1.05,0,0,1-.16-1.64.81.81,0,0,0,.09-.63c-.65-2.3-1.33-4.59-2-6.88,0-.16-.24-.27-.38-.39s-.65-.36-.69-.59a2.22,2.22,0,0,1,.25-1c.07-.22.28-.45.26-.66a18.76,18.76,0,0,1,.6-5.83C128.47,140.4,128.82,139,129.13,137.69ZM96.77,118.06c.22.15.37.27.53.37a3.69,3.69,0,0,0,2.53.44,3,3,0,0,0,1.87-2.46c0-1-.12-2-.24-3a18.24,18.24,0,0,1-.07-5.42c.28-1.61.63-3.21.91-4.83.16-.91.24-1.83.36-2.74-1.41-.19-1.43-.18-2.3.68a1.59,1.59,0,0,0-.13.13c-1.21,1.2-1.88,1.34-3,.06A3.32,3.32,0,0,0,94,100c-.4,0-.59.11-.63.56-.23,2.36-.49,4.72-.75,7.08a14.11,14.11,0,0,1-1.36,5,13.67,13.67,0,0,0-1.12,3.16A1.75,1.75,0,0,0,91.71,118a9.38,9.38,0,0,0,2.1.23,2.41,2.41,0,0,0,1.44-.66c.32-.35.5-.83,1-.63A.77.77,0,0,1,96.77,118.06Zm32.86-25.47a1,1,0,0,0,0,.22c.57,1.73,1.11,3.47,1.74,5.17a1.17,1.17,0,0,0,.92.64c.36,0,.41.12.54.32l.46.67c1.38,2,2.77,4.07,4.14,6.11.35.53.65,1.09,1,1.64-.31-1-.71-1.92-1-2.9s-.37-2-.56-3.08c-.66-.14-.77-.29-.79-1.07s.59-.72,1.11-.83a3.85,3.85,0,0,1,2.34-3.24c1.09-.58,2.29-1,3.43-1.47s2.11-1,3.31-1.5c-.47-.38-.77-.81-1.13-.88-1.53-.32-3.07-.58-4.62-.77a20.53,20.53,0,0,0-3.41-.19,33.07,33.07,0,0,0-4,.47C132,92.08,130.82,92.35,129.63,92.59ZM56.82,143.1l-.15.19c1,.75,2,1.56,3.07,2.23a36,36,0,0,0,6.69,2.94,137.4,137.4,0,0,0,13.81,4c2.58.67,5.19,1.24,7.76,2,3.78,1,7.53,2.16,11.28,3.26,3.92,1.15,7.83,2.35,11.76,3.46,2.83.81,5.69,1.52,8.54,2.27l.06-.2c-2.27-.76-4.57-1.41-6.84-2.17s-4.64-1.5-7-2.25l-7-2.26c-2.34-.76-4.69-1.5-7-2.25l-7-2.24-7-2.26c-2.33-.74-4.65-1.5-7-2.25l-7-2.25ZM132,99l-.24.09c1.39,4.32,2.86,8.6,4.28,12.9s2.87,8.64,4.33,13c.11-.15.16-.2.17-.25.23-1.35.52-2.7.67-4.06a23.52,23.52,0,0,0,.21-3.75,13.38,13.38,0,0,0-1.73-5.49c-1.25-2.38-2.53-4.76-3.93-7C134.58,102.52,133.23,100.77,132,99ZM63.49,58.18c.29-1.23.57-2.46.87-3.7a4.26,4.26,0,0,0-.24-3.21c-.24-.45-.58-.64-1-.45a7.81,7.81,0,0,0-1.63.89,17.58,17.58,0,0,0-4,4.3c-.9,1.37-1.77,2.75-2.65,4.13l.17.14Zm59.64,86.17a1.93,1.93,0,0,0,.23-.08c1.55-2.13,3.14-4.23,4.63-6.39a25.9,25.9,0,0,0,4.2-8.11,50.61,50.61,0,0,0,.9-5.35c0-.22,0-.6-.13-.66-.33-.16-.56.07-.71.4-.66,1.49-1.36,3-2,4.45q-2.4,5.31-4.79,10.62Zm-5.72,11.22c-3.64-.34-6.2,1.37-8.52,3.74l6.09,2C115.75,159.34,116.78,157.58,117.41,155.57ZM107.9,47.74c1.6,3.2,4.31,4.42,7.76,4.44-.67-2-1.32-3.94-2-5.9Zm-41,13.36A20.7,20.7,0,0,0,69,60.75c1.55-.42,2-1.06,1.86-2.28-.24-1.65-.25-1.66-1.87-1.17a.84.84,0,0,0-.44.43c-.26.5-1,.83-1.35.47s-.79-.26-1.2-.17a8.28,8.28,0,0,0-1.21.32c-.25.1-.67.31-.67.48a2,2,0,0,0,.32,1.31A3.41,3.41,0,0,0,66.91,61.1ZM46.75,94.43l7.93-4.3a10.36,10.36,0,0,0-4.53-1c-.2,1.44-.69,1.76-1.74,1.11A10.14,10.14,0,0,0,46.75,94.43Zm76.58,45.31,0,0c-.81,1.73-1.68,3.44-2.44,5.19-.9,2.05-1.79,4.11-2.52,6.22a20,20,0,0,0-.6,3.39l.24.06c.44-1,.88-1.91,1.31-2.87q1.47-3.26,2.92-6.52a1.12,1.12,0,0,0,.07-.45,4.92,4.92,0,0,1,0-1.32C122.55,142.18,123,141,123.33,139.74ZM117.59,157l-.2.06-2,4.37,6.55,2.1C119.89,161.73,118.06,159.84,117.59,157Zm20.6-37c-2.06-6.2-4.09-12.29-6.12-18.38l-.18.06c.52,2,1,4,1.55,6,.69,2.6,1.43,5.18,2.14,7.77A9,9,0,0,0,138.19,120Zm-7.78,7.1c-.45.41-.94.81-1.36,1.26a11.14,11.14,0,0,0-2,3.73c-.57,1.43-1.06,2.9-1.6,4.35-.75,2-1.53,4-2.29,6a3.94,3.94,0,0,0-.14.7l.11,0Q126.76,135.14,130.41,127.09ZM83.21,99v.18h9.7l.77-2.09ZM94.8,97.3l-.34,0-.81,1.88,2.31.11Zm2.26,2.79c.5.56.9,1.22,1.6,1.27s1-.59,1.48-1.1Zm5.76-.42c0-.46.14-1-.42-1s-.54.63-.88,1Z" style="fill:#5672b7"/></svg>